<svg xmlns="http://www.w3.org/2000/svg" xmlns:xlink="http://www.w3.org/1999/xlink" xmlns:lucid="lucid" width="2021" height="942.92"><g transform="translate(-95.87475423405738 -37.57761197821656)" lucid:page-tab-id="0_0"><path d="M0 0h3336.42v2365.05H0z" fill="#fff"/><path d="M680 66.58a8 8 0 0 1 8-8h836.75a8 8 0 0 1 8 8v25.15a8 8 0 0 1-8 8H688a8 8 0 0 1-8-8z" stroke="#000" stroke-opacity="0" stroke-width="2" fill="#fff" fill-opacity="0"/><use xlink:href="#a" transform="matrix(1,0,0,1,684,62.57761197821656) translate(251.39580246913582 25.782777777777778)"/><use xlink:href="#b" transform="matrix(1,0,0,1,684,62.57761197821656) translate(386.6587654320988 25.782777777777778)"/><use xlink:href="#c" transform="matrix(1,0,0,1,684,62.57761197821656) translate(543.6279012345678 25.782777777777778)"/><path d="M951.1 98.4h318.96M951.13 98.4h-1.03M1270.03 98.4h1.03" stroke="#a9afb8" stroke-width="2" fill="none"/><path d="M680 107.73a8 8 0 0 1 8-8h837.7a8 8 0 0 1 8 8v2.85a8 8 0 0 1-8 8H688a8 8 0 0 1-8-8z" stroke="#000" stroke-opacity="0" stroke-width="2" fill="#fff" fill-opacity="0"/><use xlink:href="#d" transform="matrix(1,0,0,1,684.0000000000005,103.73283593511538) translate(160.02697530864197 14.917037037037037)"/><use xlink:href="#e" transform="matrix(1,0,0,1,684.0000000000005,103.73283593511538) translate(234.63890946502056 14.917037037037037)"/><use xlink:href="#f" transform="matrix(1,0,0,1,684.0000000000005,103.73283593511538) translate(291.53263374485596 14.917037037037037)"/><use xlink:href="#g" transform="matrix(1,0,0,1,684.0000000000005,103.73283593511538) translate(300.0305761316872 14.917037037037037)"/><use xlink:href="#h" transform="matrix(1,0,0,1,684.0000000000005,103.73283593511538) translate(374.64251028806586 14.917037037037037)"/><use xlink:href="#i" transform="matrix(1,0,0,1,684.0000000000005,103.73283593511538) translate(428.1370576131687 14.917037037037037)"/><use xlink:href="#j" transform="matrix(1,0,0,1,684.0000000000005,103.73283593511538) translate(477.2976543209876 14.917037037037037)"/><use xlink:href="#k" transform="matrix(1,0,0,1,684.0000000000005,103.73283593511538) translate(546.0035185185184 14.917037037037037)"/><use xlink:href="#l" transform="matrix(1,0,0,1,684.0000000000005,103.73283593511538) translate(558.4530041152262 14.917037037037037)"/><use xlink:href="#m" transform="matrix(1,0,0,1,684.0000000000005,103.73283593511538) translate(633.1074279835391 14.917037037037037)"/><use xlink:href="#n" transform="matrix(1,0,0,1,684.0000000000005,103.73283593511538) translate(658.6012551440328 14.917037037037037)"/><path d="M116.38 202a17.08 17.08 0 0 1 6.14-13.12l28.5-23.76A22.1 22.1 0 0 1 165.2 160h399.47a8 8 0 0 1 8 8v283.2a22.1 22.1 0 0 1-5.12 14.15l-23.75 28.5a17.08 17.08 0 0 1-13.13 6.15H124.38a8 8 0 0 1-8-8z" stroke="#333" fill="#fff"/><path d="M124.38 194a2.9 2.9 0 0 1-1.86-5.12l28.5-23.76A22.1 22.1 0 0 1 165.2 160h399.47a3.3 3.3 0 0 1 2.35 5.66l-22.7 22.68a19.3 19.3 0 0 1-13.64 5.66z" stroke="#333" fill="#e6e6e6"/><path d="M538.65 202a19.3 19.3 0 0 1 5.66-13.66l22.7-22.68a3.3 3.3 0 0 1 5.65 2.34v283.2a22.1 22.1 0 0 1-5.12 14.15l-23.75 28.5a2.9 2.9 0 0 1-5.13-1.85z" stroke="#333" fill="#ccc"/><use xlink:href="#o" transform="matrix(1,0,0,1,124.37475423405738,201.99999999999997) translate(111.025 14.4)"/><use xlink:href="#p" transform="matrix(1,0,0,1,124.37475423405738,201.99999999999997) translate(119.1 36)"/><use xlink:href="#q" transform="matrix(1,0,0,1,124.37475423405738,201.99999999999997) translate(173.95 36)"/><path d="M116.38 291.85a17.08 17.08 0 0 1 6.14-13.13l16.53-13.77a22.1 22.1 0 0 1 14.14-5.12h355.18a8 8 0 0 1 8 8v195.35a22.1 22.1 0 0 1-5.13 14.14l-13.77 16.53a17.08 17.08 0 0 1-13.12 6.15h-360a8 8 0 0 1-7.98-8z" stroke="#333" fill="#fff"/><path d="M124.38 283.85a2.9 2.9 0 0 1-1.86-5.13l16.53-13.77a22.1 22.1 0 0 1 14.14-5.12h355.18a3.3 3.3 0 0 1 2.34 5.66l-12.7 12.7a19.3 19.3 0 0 1-13.66 5.65z" stroke="#333" fill="#e6e6e6"/><path d="M492.36 291.85A19.3 19.3 0 0 1 498 278.2l12.72-12.7a3.3 3.3 0 0 1 5.65 2.33v195.35a22.1 22.1 0 0 1-5.12 14.14l-13.77 16.53a2.9 2.9 0 0 1-5.12-1.85z" stroke="#333" fill="#ccc"/><use xlink:href="#r" transform="matrix(1,0,0,1,124.37475423405749,291.8451676924461) translate(106 14.4)"/><use xlink:href="#s" transform="matrix(1,0,0,1,124.37475423405749,291.8451676924461) translate(97.1 36)"/><use xlink:href="#t" transform="matrix(1,0,0,1,124.37475423405749,291.8451676924461) translate(135.05 36)"/><path d="M116.38 364a17.08 17.08 0 0 1 6.14-13.12l6.9-5.76A22.1 22.1 0 0 1 143.6 340h324.8a8 8 0 0 1 8 8v124.8a22.1 22.1 0 0 1-5.13 14.15l-5.75 6.9a17.08 17.08 0 0 1-13.13 6.15h-328a8 8 0 0 1-8-8z" stroke="#333" fill="#fff"/><path d="M124.38 356a2.9 2.9 0 0 1-1.86-5.12l6.9-5.76A22.1 22.1 0 0 1 143.6 340h324.8a3.3 3.3 0 0 1 2.34 5.66l-4.7 4.68A19.3 19.3 0 0 1 452.4 356z" stroke="#333" fill="#e6e6e6"/><path d="M460.38 364a19.3 19.3 0 0 1 5.65-13.66l4.7-4.68a3.3 3.3 0 0 1 5.64 2.34v124.8a22.1 22.1 0 0 1-5.12 14.15l-5.75 6.9a2.9 2.9 0 0 1-5.13-1.85z" stroke="#333" fill="#ccc"/><use xlink:href="#u" transform="matrix(1,0,0,1,124.3747542340574,364) translate(6.724999999999994 14.4)"/><use xlink:href="#v" transform="matrix(1,0,0,1,124.3747542340574,364) translate(116.525 14.4)"/><use xlink:href="#w" transform="matrix(1,0,0,1,124.3747542340574,364) translate(66.625 36)"/><use xlink:href="#x" transform="matrix(1,0,0,1,124.3747542340574,364) translate(148.47500000000002 36)"/><path d="M880.1 202a17.08 17.08 0 0 1 6.14-13.12l28.5-23.76A22.1 22.1 0 0 1 928.9 160h399.48a8 8 0 0 1 8 8v283.2a22.1 22.1 0 0 1-5.13 14.15l-23.75 28.5a17.08 17.08 0 0 1-13.13 6.15H888.1a8 8 0 0 1-8-8z" stroke="#333" fill="#fff"/><path d="M888.1 194a2.9 2.9 0 0 1-1.86-5.12l28.5-23.76A22.1 22.1 0 0 1 928.9 160h399.48a3.3 3.3 0 0 1 2.34 5.66l-22.7 22.68a19.3 19.3 0 0 1-13.64 5.66z" stroke="#333" fill="#e6e6e6"/><path d="M1302.38 202a19.3 19.3 0 0 1 5.65-13.66l22.7-22.68a3.3 3.3 0 0 1 5.64 2.34v283.2a22.1 22.1 0 0 1-5.12 14.15l-23.75 28.5a2.9 2.9 0 0 1-5.13-1.85z" stroke="#333" fill="#ccc"/><use xlink:href="#o" transform="matrix(1,0,0,1,888.094063087422,201.99999999999997) translate(111.025 14.4)"/><use xlink:href="#y" transform="matrix(1,0,0,1,888.094063087422,201.99999999999997) translate(98.55 36)"/><use xlink:href="#z" transform="matrix(1,0,0,1,888.094063087422,201.99999999999997) translate(133.5 36)"/><use xlink:href="#A" transform="matrix(1,0,0,1,888.094063087422,201.99999999999997) translate(194.5 36)"/><path d="M880 291.85a17.08 17.08 0 0 1 6.15-13.13l16.52-13.77a22.1 22.1 0 0 1 14.15-5.12h351.46a8 8 0 0 1 8 8v195.35a22.1 22.1 0 0 1-5.12 14.14l-13.78 16.53a17.08 17.08 0 0 1-13.12 6.15H888a8 8 0 0 1-8-8z" stroke="#333" fill="#fff"/><path d="M888 283.85a2.9 2.9 0 0 1-1.85-5.13l16.52-13.77a22.1 22.1 0 0 1 14.15-5.12h351.46a3.3 3.3 0 0 1 2.34 5.66l-12.7 12.7a19.3 19.3 0 0 1-13.66 5.65z" stroke="#333" fill="#e6e6e6"/><path d="M1252.26 291.85a19.3 19.3 0 0 1 5.66-13.66l12.7-12.7a3.3 3.3 0 0 1 5.66 2.33v195.35a22.1 22.1 0 0 1-5.12 14.14l-13.78 16.53a2.9 2.9 0 0 1-5.12-1.85z" stroke="#333" fill="#ccc"/><use xlink:href="#r" transform="matrix(1,0,0,1,888,291.8451676924461) translate(105 14.4)"/><use xlink:href="#s" transform="matrix(1,0,0,1,888,291.8451676924461) translate(96.1 36)"/><use xlink:href="#t" transform="matrix(1,0,0,1,888,291.8451676924461) translate(134.05 36)"/><path d="M880 364a17.08 17.08 0 0 1 6.15-13.12l6.9-5.76A22.1 22.1 0 0 1 907.2 340h321.08a8 8 0 0 1 8 8v124.8a22.1 22.1 0 0 1-5.12 14.15l-5.76 6.9a17.08 17.08 0 0 1-13.12 6.15H888a8 8 0 0 1-8-8z" stroke="#333" fill="#fff"/><path d="M888 356a2.9 2.9 0 0 1-1.85-5.12l6.9-5.76A22.1 22.1 0 0 1 907.2 340h321.08a3.3 3.3 0 0 1 2.34 5.66l-4.68 4.68a19.3 19.3 0 0 1-13.66 5.66z" stroke="#333" fill="#e6e6e6"/><path d="M1220.28 364a19.3 19.3 0 0 1 5.66-13.66l4.68-4.68a3.3 3.3 0 0 1 5.66 2.34v124.8a22.1 22.1 0 0 1-5.12 14.15l-5.76 6.9a2.9 2.9 0 0 1-5.12-1.85z" stroke="#333" fill="#ccc"/><use xlink:href="#u" transform="matrix(1,0,0,1,888.0000000000001,364) translate(5.724999999999994 14.4)"/><use xlink:href="#v" transform="matrix(1,0,0,1,888.0000000000001,364) translate(115.525 14.4)"/><use xlink:href="#B" transform="matrix(1,0,0,1,888.0000000000001,364) translate(73.675 36)"/><use xlink:href="#C" transform="matrix(1,0,0,1,888.0000000000001,364) translate(135.525 36)"/><path d="M1640.1 202a17.08 17.08 0 0 1 6.14-13.12l28.5-23.76a22.1 22.1 0 0 1 14.15-5.12h399.47a8 8 0 0 1 8 8v283.2a22.1 22.1 0 0 1-5.12 14.15l-23.75 28.5a17.08 17.08 0 0 1-13.13 6.15H1648.1a8 8 0 0 1-8-8z" stroke="#333" fill="#fff"/><path d="M1648.1 194a2.9 2.9 0 0 1-1.86-5.12l28.5-23.76a22.1 22.1 0 0 1 14.15-5.12h399.47a3.3 3.3 0 0 1 2.35 5.66l-22.7 22.68a19.3 19.3 0 0 1-13.64 5.66z" stroke="#333" fill="#e6e6e6"/><path d="M2062.38 202a19.3 19.3 0 0 1 5.65-13.66l22.7-22.68a3.3 3.3 0 0 1 5.64 2.34v283.2a22.1 22.1 0 0 1-5.12 14.15l-23.75 28.5a2.9 2.9 0 0 1-5.13-1.85z" stroke="#333" fill="#ccc"/><use xlink:href="#o" transform="matrix(1,0,0,1,1648.094063087422,202.0000000000003) translate(111.025 14.4)"/><use xlink:href="#D" transform="matrix(1,0,0,1,1648.094063087422,202.0000000000003) translate(100.57499999999999 36)"/><use xlink:href="#z" transform="matrix(1,0,0,1,1648.094063087422,202.0000000000003) translate(131.475 36)"/><use xlink:href="#A" transform="matrix(1,0,0,1,1648.094063087422,202.0000000000003) translate(192.475 36)"/><path d="M1640.1 292a17.08 17.08 0 0 1 6.14-13.12l16.5-13.76a22.1 22.1 0 0 1 14.15-5.12h351.47a8 8 0 0 1 8 8v195.2a22.1 22.1 0 0 1-5.12 14.15l-13.75 16.5a17.08 17.08 0 0 1-13.13 6.15H1648.1a8 8 0 0 1-8-8z" stroke="#333" fill="#fff"/><path d="M1648.1 284a2.9 2.9 0 0 1-1.86-5.12l16.5-13.76a22.1 22.1 0 0 1 14.15-5.12h351.47a3.3 3.3 0 0 1 2.35 5.66l-12.7 12.68a19.3 19.3 0 0 1-13.64 5.66z" stroke="#333" fill="#e6e6e6"/><path d="M2012.38 292a19.3 19.3 0 0 1 5.65-13.66l12.7-12.68a3.3 3.3 0 0 1 5.64 2.34v195.2a22.1 22.1 0 0 1-5.12 14.15l-13.75 16.5a2.9 2.9 0 0 1-5.13-1.85z" stroke="#333" fill="#ccc"/><use xlink:href="#r" transform="matrix(1,0,0,1,1648.0940630874218,292) translate(105 14.4)"/><use xlink:href="#s" transform="matrix(1,0,0,1,1648.0940630874218,292) translate(96.1 36)"/><use xlink:href="#t" transform="matrix(1,0,0,1,1648.0940630874218,292) translate(134.05 36)"/><path d="M1640.1 364a17.08 17.08 0 0 1 6.14-13.12l6.9-5.76a22.1 22.1 0 0 1 14.15-5.12h321.08a8 8 0 0 1 8 8v124.8a22.1 22.1 0 0 1-5.13 14.15l-5.75 6.9a17.08 17.08 0 0 1-13.13 6.15H1648.1a8 8 0 0 1-8-8z" stroke="#333" fill="#fff"/><path d="M1648.1 356a2.9 2.9 0 0 1-1.86-5.12l6.9-5.76a22.1 22.1 0 0 1 14.15-5.12h321.08a3.3 3.3 0 0 1 2.34 5.66l-4.7 4.68a19.3 19.3 0 0 1-13.64 5.66z" stroke="#333" fill="#e6e6e6"/><path d="M1980.38 364a19.3 19.3 0 0 1 5.65-13.66l4.7-4.68a3.3 3.3 0 0 1 5.64 2.34v124.8a22.1 22.1 0 0 1-5.12 14.15l-5.75 6.9a2.9 2.9 0 0 1-5.13-1.85z" stroke="#333" fill="#ccc"/><use xlink:href="#u" transform="matrix(1,0,0,1,1648.0940630874218,364) translate(5.724999999999994 14.4)"/><use xlink:href="#v" transform="matrix(1,0,0,1,1648.0940630874218,364) translate(115.525 14.4)"/><use xlink:href="#E" transform="matrix(1,0,0,1,1648.0940630874218,364) translate(73.1 36)"/><path d="M475.38 704.82h-167a12 12 0 0 1-12-12V501" stroke="#333" fill="none"/><path d="M475.88 705.32h-.52v-1h.5zM296.88 501h-1v-.5h1z" stroke="#333" stroke-width=".05" fill="#333"/><use xlink:href="#F" transform="matrix(1,0,0,1,304.37475423405743,530.6095739915716) translate(29.929999999999993 14.4)"/><use xlink:href="#G" transform="matrix(1,0,0,1,304.37475423405743,530.6095739915716) translate(0.0049999999999954525 36)"/><use xlink:href="#H" transform="matrix(1,0,0,1,304.37475423405743,530.6095739915716) translate(64.905 36)"/><use xlink:href="#I" transform="matrix(1,0,0,1,304.37475423405743,530.6095739915716) translate(140.755 36)"/><use xlink:href="#J" transform="matrix(1,0,0,1,304.37475423405743,530.6095739915716) translate(15.704999999999998 57.6)"/><use xlink:href="#K" transform="matrix(1,0,0,1,304.37475423405743,530.6095739915716) translate(68.255 57.6)"/><use xlink:href="#L" transform="matrix(1,0,0,1,304.37475423405743,530.6095739915716) translate(91.205 57.6)"/><path d="M1235.38 704.82h-26.58a12 12 0 0 1-12-12V501" stroke="#333" fill="none"/><path d="M1235.88 705.32h-.52v-1h.52zM1197.3 501h-1v-.5h1z" stroke="#333" stroke-width=".05" fill="#333"/><use xlink:href="#F" transform="matrix(1,0,0,1,1204.7956322322655,522.9230078609393) translate(42.75499999999998 14.4)"/><use xlink:href="#G" transform="matrix(1,0,0,1,1204.7956322322655,522.9230078609393) translate(13.35499999999999 36)"/><use xlink:href="#H" transform="matrix(1,0,0,1,1204.7956322322655,522.9230078609393) translate(78.255 36)"/><use xlink:href="#M" transform="matrix(1,0,0,1,1204.7956322322655,522.9230078609393) translate(154.105 36)"/><use xlink:href="#N" transform="matrix(1,0,0,1,1204.7956322322655,522.9230078609393) translate(0.0049999999999954525 57.6)"/><use xlink:href="#O" transform="matrix(1,0,0,1,1204.7956322322655,522.9230078609393) translate(56.904999999999994 57.6)"/><use xlink:href="#P" transform="matrix(1,0,0,1,1204.7956322322655,522.9230078609393) translate(99.85499999999999 57.6)"/><use xlink:href="#K" transform="matrix(1,0,0,1,1204.7956322322655,522.9230078609393) translate(135.505 57.6)"/><use xlink:href="#Q" transform="matrix(1,0,0,1,1204.7956322322655,522.9230078609393) translate(158.45499999999998 57.6)"/><path d="M1696.38 428a8 8 0 0 1 8-8h164a8 8 0 0 1 8 8v44a8 8 0 0 1-8 8h-164a8 8 0 0 1-8-8z" stroke="#333" fill="#fff"/><path d="M1676.38 433a8 8 0 0 1 8-8h24a8 8 0 0 1 8 8v4a8 8 0 0 1-8 8h-24a8 8 0 0 1-8-8zM1676.38 463a8 8 0 0 1 8-8h24a8 8 0 0 1 8 8v4a8 8 0 0 1-8 8h-24a8 8 0 0 1-8-8z" stroke="#333" fill="#fff"/><use xlink:href="#R" transform="matrix(1,0,0,1,1716.3747542340575,426) translate(28.049999999999997 16.799999999999997)"/><use xlink:href="#S" transform="matrix(1,0,0,1,1716.3747542340575,426) translate(35.599999999999994 38.4)"/><path d="M476.38 662a17.08 17.08 0 0 1 6.14-13.12l28.5-23.76a22.1 22.1 0 0 1 14.15-5.12h403.2a8 8 0 0 1 8 8v283.2a22.1 22.1 0 0 1-5.12 14.15l-23.75 28.5a17.08 17.08 0 0 1-13.13 6.15h-410a8 8 0 0 1-8-8z" stroke="#333" fill="#fff"/><path d="M484.38 654a2.9 2.9 0 0 1-1.86-5.12l28.5-23.76a22.1 22.1 0 0 1 14.15-5.12h403.2a3.3 3.3 0 0 1 2.35 5.66l-22.7 22.68A19.3 19.3 0 0 1 894.4 654z" stroke="#333" fill="#e6e6e6"/><path d="M902.38 662a19.3 19.3 0 0 1 5.65-13.66l22.7-22.68a3.3 3.3 0 0 1 5.64 2.34v283.2a22.1 22.1 0 0 1-5.12 14.15l-23.75 28.5a2.9 2.9 0 0 1-5.13-1.85z" stroke="#333" fill="#ccc"/><use xlink:href="#o" transform="matrix(1,0,0,1,484.3747542340574,662) translate(112.025 14.4)"/><use xlink:href="#T" transform="matrix(1,0,0,1,484.3747542340574,662) translate(87.6 36)"/><use xlink:href="#q" transform="matrix(1,0,0,1,484.3747542340574,662) translate(207.45 36)"/><path d="M476.38 752a17.08 17.08 0 0 1 6.14-13.12l16.5-13.76a22.1 22.1 0 0 1 14.15-5.12h355.2a8 8 0 0 1 8 8v195.2a22.1 22.1 0 0 1-5.12 14.15l-13.75 16.5a17.08 17.08 0 0 1-13.13 6.15h-360a8 8 0 0 1-8-8z" stroke="#333" fill="#fff"/><path d="M484.38 744a2.9 2.9 0 0 1-1.86-5.12l16.5-13.76a22.1 22.1 0 0 1 14.15-5.12h355.2a3.3 3.3 0 0 1 2.35 5.66l-12.7 12.68A19.3 19.3 0 0 1 844.4 744z" stroke="#333" fill="#e6e6e6"/><path d="M852.38 752a19.3 19.3 0 0 1 5.65-13.66l12.7-12.68a3.3 3.3 0 0 1 5.64 2.34v195.2a22.1 22.1 0 0 1-5.12 14.15l-13.75 16.5a2.9 2.9 0 0 1-5.13-1.85z" stroke="#333" fill="#ccc"/><use xlink:href="#r" transform="matrix(1,0,0,1,484.3747542340575,752) translate(106 14.4)"/><use xlink:href="#s" transform="matrix(1,0,0,1,484.3747542340575,752) translate(97.1 36)"/><use xlink:href="#t" transform="matrix(1,0,0,1,484.3747542340575,752) translate(135.05 36)"/><path d="M476.38 824a17.08 17.08 0 0 1 6.14-13.12l6.9-5.76a22.1 22.1 0 0 1 14.15-5.12h324.8a8 8 0 0 1 8 8v124.8a22.1 22.1 0 0 1-5.12 14.15l-5.75 6.9a17.08 17.08 0 0 1-13.13 6.15h-328a8 8 0 0 1-8-8z" stroke="#333" fill="#fff"/><path d="M484.38 816a2.9 2.9 0 0 1-1.86-5.12l6.9-5.76a22.1 22.1 0 0 1 14.15-5.12h324.8a3.3 3.3 0 0 1 2.35 5.66l-4.7 4.68A19.3 19.3 0 0 1 812.4 816z" stroke="#333" fill="#e6e6e6"/><path d="M820.38 824a19.3 19.3 0 0 1 5.65-13.66l4.7-4.68a3.3 3.3 0 0 1 5.64 2.34v124.8a22.1 22.1 0 0 1-5.12 14.15l-5.75 6.9a2.9 2.9 0 0 1-5.13-1.85z" stroke="#333" fill="#ccc"/><g><use xlink:href="#u" transform="matrix(1,0,0,1,484.3747542340576,824) translate(6.724999999999994 14.4)"/><use xlink:href="#v" transform="matrix(1,0,0,1,484.3747542340576,824) translate(116.525 14.4)"/><use xlink:href="#U" transform="matrix(1,0,0,1,484.3747542340576,824) translate(92.525 36)"/></g><path d="M1236.38 662a17.08 17.08 0 0 1 6.14-13.12l28.5-23.76a22.1 22.1 0 0 1 14.15-5.12h403.2a8 8 0 0 1 8 8v283.2a22.1 22.1 0 0 1-5.12 14.15l-23.75 28.5a17.08 17.08 0 0 1-13.13 6.15h-410a8 8 0 0 1-8-8z" stroke="#333" fill="#fff"/><path d="M1244.38 654a2.9 2.9 0 0 1-1.86-5.12l28.5-23.76a22.1 22.1 0 0 1 14.15-5.12h403.2a3.3 3.3 0 0 1 2.35 5.66l-22.7 22.68a19.3 19.3 0 0 1-13.64 5.66z" stroke="#333" fill="#e6e6e6"/><path d="M1662.38 662a19.3 19.3 0 0 1 5.65-13.66l22.7-22.68a3.3 3.3 0 0 1 5.64 2.34v283.2a22.1 22.1 0 0 1-5.12 14.15l-23.75 28.5a2.9 2.9 0 0 1-5.13-1.85z" stroke="#333" fill="#ccc"/><g><use xlink:href="#o" transform="matrix(1,0,0,1,1244.3747542340575,662.0000000000001) translate(112.025 14.4)"/><use xlink:href="#V" transform="matrix(1,0,0,1,1244.3747542340575,662.0000000000001) translate(89.6 36)"/><use xlink:href="#q" transform="matrix(1,0,0,1,1244.3747542340575,662.0000000000001) translate(205.45 36)"/></g><path d="M1236.38 752a17.08 17.08 0 0 1 6.14-13.12l16.5-13.76a22.1 22.1 0 0 1 14.15-5.12h351.48a8 8 0 0 1 8 8v195.2a22.1 22.1 0 0 1-5.12 14.15l-13.75 16.5a17.08 17.08 0 0 1-13.13 6.15h-356.28a8 8 0 0 1-8-8z" stroke="#333" fill="#fff"/><path d="M1244.38 744a2.9 2.9 0 0 1-1.86-5.12l16.5-13.76a22.1 22.1 0 0 1 14.15-5.12h351.48a3.3 3.3 0 0 1 2.35 5.66l-12.7 12.68a19.3 19.3 0 0 1-13.64 5.66z" stroke="#333" fill="#e6e6e6"/><path d="M1608.65 752a19.3 19.3 0 0 1 5.66-13.66l12.7-12.68a3.3 3.3 0 0 1 5.65 2.34v195.2a22.1 22.1 0 0 1-5.12 14.15l-13.75 16.5a2.9 2.9 0 0 1-5.13-1.85z" stroke="#333" fill="#ccc"/><g><use xlink:href="#r" transform="matrix(1,0,0,1,1244.3747542340573,751.9999999999998) translate(105 14.4)"/><use xlink:href="#s" transform="matrix(1,0,0,1,1244.3747542340573,751.9999999999998) translate(96.1 36)"/><use xlink:href="#t" transform="matrix(1,0,0,1,1244.3747542340573,751.9999999999998) translate(134.05 36)"/></g><path d="M1236.38 824a17.08 17.08 0 0 1 6.14-13.12l6.9-5.76a22.1 22.1 0 0 1 14.15-5.12h321.1a8 8 0 0 1 7.98 8v124.8a22.1 22.1 0 0 1-5.12 14.15l-5.75 6.9a17.08 17.08 0 0 1-13.13 6.15h-324.28a8 8 0 0 1-8-8z" stroke="#333" fill="#fff"/><path d="M1244.38 816a2.9 2.9 0 0 1-1.86-5.12l6.9-5.76a22.1 22.1 0 0 1 14.15-5.12h321.1a3.3 3.3 0 0 1 2.33 5.66l-4.7 4.68a19.3 19.3 0 0 1-13.64 5.66z" stroke="#333" fill="#e6e6e6"/><path d="M1576.65 824a19.3 19.3 0 0 1 5.66-13.66l4.7-4.68a3.3 3.3 0 0 1 5.65 2.34v124.8a22.1 22.1 0 0 1-5.12 14.15l-5.75 6.9a2.9 2.9 0 0 1-5.13-1.85z" stroke="#333" fill="#ccc"/><g><use xlink:href="#u" transform="matrix(1,0,0,1,1244.3747542340577,823.9999999999998) translate(5.724999999999994 14.4)"/><use xlink:href="#v" transform="matrix(1,0,0,1,1244.3747542340577,823.9999999999998) translate(115.525 14.4)"/><use xlink:href="#U" transform="matrix(1,0,0,1,1244.3747542340577,823.9999999999998) translate(91.525 36)"/></g><path d="M937.38 704.82h63.12a12 12 0 0 0 12-12V501" stroke="#333" fill="none"/><path d="M937.4 705.32h-.52v-1h.5zM1013 501h-1v-.5h1z" stroke="#333" stroke-width=".05" fill="#333"/><g><use xlink:href="#F" transform="matrix(1,0,0,1,839.8038181915672,528.7907730479811) translate(29.404999999999987 14.4)"/><use xlink:href="#G" transform="matrix(1,0,0,1,839.8038181915672,528.7907730479811) translate(0.0049999999999954525 36)"/><use xlink:href="#H" transform="matrix(1,0,0,1,839.8038181915672,528.7907730479811) translate(64.905 36)"/><use xlink:href="#W" transform="matrix(1,0,0,1,839.8038181915672,528.7907730479811) translate(140.755 36)"/><use xlink:href="#J" transform="matrix(1,0,0,1,839.8038181915672,528.7907730479811) translate(15.179999999999993 57.6)"/><use xlink:href="#K" transform="matrix(1,0,0,1,839.8038181915672,528.7907730479811) translate(67.72999999999999 57.6)"/><use xlink:href="#L" transform="matrix(1,0,0,1,839.8038181915672,528.7907730479811) translate(90.67999999999999 57.6)"/></g><path d="M1819.28 692.84l-.16 1.93-.46 1.9-.75 1.82-1 1.66-1.3 1.5-1.48 1.27-1.67 1.02-1.8.75-1.92.46-1.94.16h-109.42v-1h109.38l1.8-.15 1.77-.42 1.66-.7 1.53-.93 1.38-1.17 1.18-1.38.94-1.54.7-1.66.4-1.76.16-1.8v-74.4h1zm0-139.23h-1V501h1z" stroke="#333" stroke-width=".05" fill="#333"/><path d="M1819.28 501h-1v-.5h1z" fill="#333"/><path d="M1819.3 501.04h-1.05v-.56h1.05zm-1-.52v.47h.95v-.48z" stroke="#333" stroke-width=".05" fill="#333"/><path d="M1697.4 705.32h-.53v-1h.52z" fill="#333"/><path d="M1697.4 705.34h-.55v-1.05h.56zm-.5-1v.95h.46v-.96z" stroke="#333" stroke-width=".05" fill="#333"/><g><use xlink:href="#F" transform="matrix(1,0,0,1,1723.0747533568303,553.6117778860103) translate(42.75499999999998 14.4)"/><use xlink:href="#G" transform="matrix(1,0,0,1,1723.0747533568303,553.6117778860103) translate(13.35499999999999 36)"/><use xlink:href="#H" transform="matrix(1,0,0,1,1723.0747533568303,553.6117778860103) translate(78.255 36)"/><use xlink:href="#X" transform="matrix(1,0,0,1,1723.0747533568303,553.6117778860103) translate(154.105 36)"/><use xlink:href="#N" transform="matrix(1,0,0,1,1723.0747533568303,553.6117778860103) translate(0.0049999999999954525 57.6)"/><use xlink:href="#O" transform="matrix(1,0,0,1,1723.0747533568303,553.6117778860103) translate(56.904999999999994 57.6)"/><use xlink:href="#P" transform="matrix(1,0,0,1,1723.0747533568303,553.6117778860103) translate(99.85499999999999 57.6)"/><use xlink:href="#K" transform="matrix(1,0,0,1,1723.0747533568303,553.6117778860103) translate(135.505 57.6)"/><use xlink:href="#Q" transform="matrix(1,0,0,1,1723.0747533568303,553.6117778860103) translate(158.45499999999998 57.6)"/></g><path d="M220 508a8 8 0 0 1 8-8h64a8 8 0 0 1 8 8v4a8 8 0 0 1-8 8h-64a8 8 0 0 1-8-8z" fill="none"/><g><use xlink:href="#Y" transform="matrix(1,0,0,1,220,500.0000000000001) translate(10.648456790123461 12.711111111111112)"/><use xlink:href="#Z" transform="matrix(1,0,0,1,220,500.0000000000001) translate(61.82067901234568 12.711111111111112)"/></g><path d="M400 688a8 8 0 0 1 8-8h64a8 8 0 0 1 8 8v4a8 8 0 0 1-8 8h-64a8 8 0 0 1-8-8z" fill="none"/><g><use xlink:href="#Y" transform="matrix(1,0,0,1,400,680) translate(10.648456790123461 12.711111111111112)"/><use xlink:href="#Z" transform="matrix(1,0,0,1,400,680) translate(61.82067901234568 12.711111111111112)"/></g><path d="M936.38 688a8 8 0 0 1 8-8h64a8 8 0 0 1 8 8v4a8 8 0 0 1-8 8h-64a8 8 0 0 1-8-8z" fill="none"/><g><use xlink:href="#Y" transform="matrix(1,0,0,1,936.3747542340574,680) translate(10.648456790123461 12.711111111111112)"/><use xlink:href="#aa" transform="matrix(1,0,0,1,936.3747542340574,680) translate(61.82067901234568 12.711111111111112)"/></g><path d="M1016.38 508a8 8 0 0 1 8-8h64a8 8 0 0 1 8 8v4a8 8 0 0 1-8 8h-64a8 8 0 0 1-8-8z" fill="none"/><g><use xlink:href="#Y" transform="matrix(1,0,0,1,1016.3747542340574,500.00000000000017) translate(10.648456790123461 12.711111111111112)"/><use xlink:href="#Z" transform="matrix(1,0,0,1,1016.3747542340574,500.00000000000017) translate(61.82067901234568 12.711111111111112)"/></g><path d="M1191.5 508a8 8 0 0 1 8-8h64a8 8 0 0 1 8 8v4a8 8 0 0 1-8 8h-64a8 8 0 0 1-8-8z" fill="none"/><g><use xlink:href="#Y" transform="matrix(1,0,0,1,1191.486369046158,500.00000000000017) translate(10.648456790123461 12.711111111111112)"/><use xlink:href="#aa" transform="matrix(1,0,0,1,1191.486369046158,500.00000000000017) translate(61.82067901234568 12.711111111111112)"/></g><path d="M1164.92 712.47a8 8 0 0 1 8-8h64a8 8 0 0 1 8 8v4a8 8 0 0 1-8 8h-64a8 8 0 0 1-8-8z" fill="none"/><g><use xlink:href="#Y" transform="matrix(1,0,0,1,1164.9192512126301,704.4720465569368) translate(10.648456790123461 12.711111111111112)"/><use xlink:href="#Z" transform="matrix(1,0,0,1,1164.9192512126301,704.4720465569368) translate(61.82067901234568 12.711111111111112)"/></g><path d="M1696.38 712.47a8 8 0 0 1 8-8h64a8 8 0 0 1 8 8v4a8 8 0 0 1-8 8h-64a8 8 0 0 1-8-8z" fill="none"/><g><use xlink:href="#Y" transform="matrix(1,0,0,1,1696.3747542340575,704.4720465569369) translate(10.648456790123461 12.711111111111112)"/><use xlink:href="#aa" transform="matrix(1,0,0,1,1696.3747542340575,704.4720465569369) translate(61.82067901234568 12.711111111111112)"/></g><path d="M1820 508a8 8 0 0 1 8-8h71.95a8 8 0 0 1 8 8v15.6a8 8 0 0 1-8 8H1828a8 8 0 0 1-8-8z" fill="#fff" fill-opacity="0"/><g><use xlink:href="#ab" transform="matrix(1,0,0,1,1825,505.00000000000017) translate(0.02499999999999858 15.775)"/><use xlink:href="#ac" transform="matrix(1,0,0,1,1825,505.00000000000017) translate(67.975 15.775)"/></g><path d="M573.65 330H668a12 12 0 0 0 12-12v-61.62" stroke="#333" fill="none"/><path d="M573.67 330.5h-.5v-1h.5z" stroke="#333" stroke-width=".05" fill="#333"/><path d="M680 241.62l4.63 14.26h-9.26z" stroke="#333" fill="#333"/><g><use xlink:href="#Y" transform="matrix(1,0,0,1,573.3034650087366,334.0000000000053) translate(0.005000000000002558 10.844444444444445)"/><use xlink:href="#ad" transform="matrix(1,0,0,1,573.3034650087366,334.0000000000053) translate(51.17722222222222 10.844444444444445)"/><use xlink:href="#ae" transform="matrix(1,0,0,1,573.3034650087366,334.0000000000053) translate(66.23895061728393 10.844444444444445)"/></g><path d="M879.1 330H792a12 12 0 0 1-12-12v-61.62" stroke="#333" fill="none"/><path d="M879.6 330.5h-.52v-1h.5z" stroke="#333" stroke-width=".05" fill="#333"/><path d="M780 241.62l4.63 14.26h-9.26z" stroke="#333" fill="#333"/><g><use xlink:href="#Y" transform="matrix(1,0,0,1,778.5076452486518,334.00000000000523) translate(0.005000000000002558 10.844444444444445)"/><use xlink:href="#af" transform="matrix(1,0,0,1,778.5076452486518,334.00000000000523) translate(51.17722222222222 10.844444444444445)"/><use xlink:href="#ae" transform="matrix(1,0,0,1,778.5076452486518,334.00000000000523) translate(66.23895061728393 10.844444444444445)"/></g><path d="M786.38 192.67c0 6.9-2.04 12.4-6.13 16.5-6.72 6.68-16.32 6.83-17.15 6.83h-12.97v-5.55l12.97.08c.12 0 8.15-.08 13.3-5.32 3-2.96 4.58-7.2 4.58-12.53 0-3.2-.97-8.13-8.64-12.85-3.97-2.5-7.7-3.26-9.13-3.57-1.43-.23-2.5-1.52-2.27-3.04-.47-5.7-3.1-9.8-7.43-11.08-3.6-1.07-7.45.22-9.85 3.34-.6.76-1.55 1.22-2.63 1.06-.97-.15-1.8-.83-2.16-1.82-1.7-4.56-4.1-8.44-7.2-11.4-3.84-3.72-14.4-11.7-29.28-5.62-8.52 3.5-15.25 13.52-15.25 22.8 0 1.06 0 2.05.13 3.1.24 1.3-.6 2.6-1.8 2.98-.13 0-.25.07-.37.07-5.05 1.3-13.33 5.1-13.33 16.5 0 8.66 4.93 13.45 9.13 15.95 1.32.84 3 1.3 4.68 1.3l16.67.07v5.47H685.6c-2.65 0-5.3-.76-7.57-2.12-4.3-2.6-11.63-8.82-11.63-20.68 0-10.18 5.64-18 15.37-21.2 0-.46-.13-1-.13-1.44 0-11.56 8.05-23.56 18.74-27.9 12.36-5.1 25.55-2.58 35.15 6.7 2.75 2.73 5.03 6 6.96 9.8 3.6-2.74 8.27-3.58 12.7-2.2 5.9 1.82 9.98 7.14 11.06 14.43 3 .77 6.24 2.14 9 3.8 7.55 4.65 11.15 10.42 11.15 17.57zm-64.56-3.88l-9.73-9.9v37.02h-5.52v-36.7l-9.37 9.65-3.83-3.88 14.16-14.52c.5-.54 1.2-.84 1.93-.84.7 0 1.43.3 1.9.84l14.3 14.44zm33.35 5.7l3.85 3.94-14.28 14.44c-.5.54-1.2.84-1.92.84-.73 0-1.45-.3-1.93-.84l-14.16-14.5 3.84-3.9 9.35 9.6v-31.7h5.53v32zM716.3 215.9v-5.47h19.32V216z" stroke="#000" stroke-opacity="0" fill="#232f3d"/><path d="M702.26 215.93l33.3.08h27.7l13-7.22 7.5-10.93-.67-14.3-18.25-9.75-5.93-12.03-8.78-2-9.23 2.44-15.15-17.4-18.02-2.6-16.64 9.24-7.42 16.38-1.7 6.86-11.64 10.4-.57 16.54 9.8 10.7z" stroke="#000" stroke-opacity="0" fill-opacity="0"/><g><use xlink:href="#ag" transform="matrix(1,0,0,1,636.3747542340575,225) translate(59.525 14.4)"/></g><defs><path fill="#a9afb8" d="M230 0l2-204L168 0h-37L68-204 70 0H24v-248h70l56 185 57-185h69V0h-46" id="ah"/><path fill="#a9afb8" d="M185-48c-13 30-37 53-82 52C43 2 14-33 14-96s30-98 90-98c62 0 83 45 84 108H66c0 31 8 55 39 56 18 0 30-7 34-22zm-45-69c5-46-57-63-70-21-2 6-4 13-4 21h74" id="ai"/><path fill="#a9afb8" d="M88-194c31-1 46 15 58 34l-1-101h50l1 261h-48c-2-10 0-23-3-31C134-8 116 4 84 4 32 4 16-41 15-95c0-56 19-97 73-99zm17 164c33 0 40-30 41-66 1-37-9-64-41-64s-38 30-39 65c0 43 13 65 39 65" id="aj"/><path fill="#a9afb8" d="M25-224v-37h50v37H25zM25 0v-190h50V0H25" id="ak"/><path fill="#a9afb8" d="M136-208V0H84v-208H4v-40h212v40h-80" id="al"/><path fill="#a9afb8" d="M135-150c-39-12-60 13-60 57V0H25l-1-190h47c2 13-1 29 3 40 6-28 27-53 61-41v41" id="am"/><path fill="#a9afb8" d="M133-34C117-15 103 5 69 4 32 3 11-16 11-54c-1-60 55-63 116-61 1-26-3-47-28-47-18 1-26 9-28 27l-52-2c7-38 36-58 82-57s74 22 75 68l1 82c-1 14 12 18 25 15v27c-30 8-71 5-69-32zm-48 3c29 0 43-24 42-57-32 0-66-3-65 30 0 17 8 27 23 27" id="an"/><path fill="#a9afb8" d="M190-63c-7 42-38 67-86 67-59 0-84-38-90-98-12-110 154-137 174-36l-49 2c-2-19-15-32-35-32-30 0-35 28-38 64-6 74 65 87 74 30" id="ao"/><path fill="#a9afb8" d="M147 0L96-86 75-71V0H25v-261h50v150l67-79h53l-66 74L201 0h-54" id="ap"/><g id="a"><use transform="matrix(0.0728395061728395,0,0,0.0728395061728395,0,0)" xlink:href="#ah"/><use transform="matrix(0.0728395061728395,0,0,0.0728395061728395,21.77901234567901,0)" xlink:href="#ai"/><use transform="matrix(0.0728395061728395,0,0,0.0728395061728395,36.34691358024691,0)" xlink:href="#aj"/><use transform="matrix(0.0728395061728395,0,0,0.0728395061728395,52.29876543209876,0)" xlink:href="#ak"/><use transform="matrix(0.0728395061728395,0,0,0.0728395061728395,59.582716049382704,0)" xlink:href="#al"/><use transform="matrix(0.0728395061728395,0,0,0.0728395061728395,74.07777777777777,0)" xlink:href="#am"/><use transform="matrix(0.0728395061728395,0,0,0.0728395061728395,84.2753086419753,0)" xlink:href="#an"/><use transform="matrix(0.0728395061728395,0,0,0.0728395061728395,98.84320987654318,0)" xlink:href="#ao"/><use transform="matrix(0.0728395061728395,0,0,0.0728395061728395,113.4111111111111,0)" xlink:href="#ap"/></g><path fill="#a9afb8" d="M24-248c120-7 223 5 221 122C244-46 201 0 124 0H24v-248zM76-40c74 7 117-18 117-86 0-67-45-88-117-82v168" id="aq"/><path fill="#a9afb8" d="M135-194c53 0 70 44 70 98 0 56-19 98-73 100-31 1-45-17-59-34 3 33 2 69 2 105H25l-1-265h48c2 10 0 23 3 31 11-24 29-35 60-35zM114-30c33 0 39-31 40-66 0-38-9-64-40-64-56 0-55 130 0 130" id="ar"/><path fill="#a9afb8" d="M25 0v-261h50V0H25" id="as"/><path fill="#a9afb8" d="M110-194c64 0 96 36 96 99 0 64-35 99-97 99-61 0-95-36-95-99 0-62 34-99 96-99zm-1 164c35 0 45-28 45-65 0-40-10-65-43-65-34 0-45 26-45 65 0 36 10 65 43 65" id="at"/><path fill="#a9afb8" d="M123 10C108 53 80 86 19 72V37c35 8 53-11 59-39L3-190h52l48 148c12-52 28-100 44-148h51" id="au"/><path fill="#a9afb8" d="M220-157c-53 9-28 100-34 157h-49v-107c1-27-5-49-29-50C55-147 81-57 75 0H25l-1-190h47c2 12-1 28 3 38 10-53 101-56 108 0 13-22 24-43 59-42 82 1 51 116 57 194h-49v-107c-1-25-5-48-29-50" id="av"/><path fill="#a9afb8" d="M135-194c87-1 58 113 63 194h-50c-7-57 23-157-34-157-59 0-34 97-39 157H25l-1-190h47c2 12-1 28 3 38 12-26 28-41 61-42" id="aw"/><path fill="#a9afb8" d="M115-3C79 11 28 4 28-45v-112H4v-33h27l15-45h31v45h36v33H77v99c-1 23 16 31 38 25v30" id="ax"/><g id="b"><use transform="matrix(0.0728395061728395,0,0,0.0728395061728395,0,0)" xlink:href="#aq"/><use transform="matrix(0.0728395061728395,0,0,0.0728395061728395,18.86543209876543,0)" xlink:href="#ai"/><use transform="matrix(0.0728395061728395,0,0,0.0728395061728395,33.43333333333333,0)" xlink:href="#ar"/><use transform="matrix(0.0728395061728395,0,0,0.0728395061728395,49.38518518518518,0)" xlink:href="#as"/><use transform="matrix(0.0728395061728395,0,0,0.0728395061728395,56.66913580246913,0)" xlink:href="#at"/><use transform="matrix(0.0728395061728395,0,0,0.0728395061728395,72.62098765432098,0)" xlink:href="#au"/><use transform="matrix(0.0728395061728395,0,0,0.0728395061728395,87.18888888888888,0)" xlink:href="#av"/><use transform="matrix(0.0728395061728395,0,0,0.0728395061728395,110.49753086419753,0)" xlink:href="#ai"/><use transform="matrix(0.0728395061728395,0,0,0.0728395061728395,125.06543209876543,0)" xlink:href="#aw"/><use transform="matrix(0.0728395061728395,0,0,0.0728395061728395,141.01728395061727,0)" xlink:href="#ax"/></g><path fill="#a9afb8" d="M238-95c0 69-44 99-111 99C63 4 22-25 22-93v-155h51v151c-1 38 19 59 55 60 90 1 49-130 58-211h52v153" id="ay"/><path fill="#a9afb8" d="M24 0v-248h52v208h133V0H24" id="az"/><g id="c"><use transform="matrix(0.0728395061728395,0,0,0.0728395061728395,0,0)" xlink:href="#ay"/><use transform="matrix(0.0728395061728395,0,0,0.0728395061728395,18.86543209876543,0)" xlink:href="#ah"/><use transform="matrix(0.0728395061728395,0,0,0.0728395061728395,40.644444444444446,0)" xlink:href="#az"/></g><path fill="#a9afb8" d="M143 4C61 4 22-44 18-125c-5-107 100-154 193-111 17 8 29 25 37 43l-32 9c-13-25-37-40-76-40-61 0-88 39-88 99 0 61 29 100 91 101 35 0 62-11 79-27v-45h-74v-28h105v86C228-13 192 4 143 4" id="aA"/><path fill="#a9afb8" d="M84 4C-5 8 30-112 23-190h32v120c0 31 7 50 39 49 72-2 45-101 50-169h31l1 190h-30c-1-10 1-25-2-33-11 22-28 36-60 37" id="aB"/><path fill="#a9afb8" d="M24-231v-30h32v30H24zM24 0v-190h32V0H24" id="aC"/><path fill="#a9afb8" d="M24 0v-261h32V0H24" id="aD"/><path fill="#a9afb8" d="M106-169C34-169 62-67 57 0H25v-261h32l-1 103c12-21 28-36 61-36 89 0 53 116 60 194h-32v-121c2-32-8-49-39-48" id="aE"/><path fill="#a9afb8" d="M100-194c63 0 86 42 84 106H49c0 40 14 67 53 68 26 1 43-12 49-29l28 8c-11 28-37 45-77 45C44 4 14-33 15-96c1-61 26-98 85-98zm52 81c6-60-76-77-97-28-3 7-6 17-6 28h103" id="aF"/><path fill="#a9afb8" d="M114-163C36-179 61-72 57 0H25l-1-190h30c1 12-1 29 2 39 6-27 23-49 58-41v29" id="aG"/><path fill="#a9afb8" d="M210-169c-67 3-38 105-44 169h-31v-121c0-29-5-50-35-48C34-165 62-65 56 0H25l-1-190h30c1 10-1 24 2 32 10-44 99-50 107 0 11-21 27-35 58-36 85-2 47 119 55 194h-31v-121c0-29-5-49-35-48" id="aH"/><g id="d"><use transform="matrix(0.04248971193415638,0,0,0.04248971193415638,0,0)" xlink:href="#aA"/><use transform="matrix(0.04248971193415638,0,0,0.04248971193415638,11.897119341563785,0)" xlink:href="#aB"/><use transform="matrix(0.04248971193415638,0,0,0.04248971193415638,20.39506172839506,0)" xlink:href="#aC"/><use transform="matrix(0.04248971193415638,0,0,0.04248971193415638,23.751748971193415,0)" xlink:href="#aD"/><use transform="matrix(0.04248971193415638,0,0,0.04248971193415638,27.10843621399177,0)" xlink:href="#aE"/><use transform="matrix(0.04248971193415638,0,0,0.04248971193415638,35.60637860082304,0)" xlink:href="#aF"/><use transform="matrix(0.04248971193415638,0,0,0.04248971193415638,44.10432098765432,0)" xlink:href="#aG"/><use transform="matrix(0.04248971193415638,0,0,0.04248971193415638,49.160596707818925,0)" xlink:href="#aH"/><use transform="matrix(0.04248971193415638,0,0,0.04248971193415638,61.865020576131684,0)" xlink:href="#aF"/></g><path fill="#a9afb8" d="M160-131c35 5 61 23 61 61C221 17 115-2 30 0v-248c76 3 177-17 177 60 0 33-19 50-47 57zm-97-11c50-1 110 9 110-42 0-47-63-36-110-37v79zm0 115c55-2 124 14 124-45 0-56-70-42-124-44v89" id="aI"/><path fill="#a9afb8" d="M141-36C126-15 110 5 73 4 37 3 15-17 15-53c-1-64 63-63 125-63 3-35-9-54-41-54-24 1-41 7-42 31l-33-3c5-37 33-52 76-52 45 0 72 20 72 64v82c-1 20 7 32 28 27v20c-31 9-61-2-59-35zM48-53c0 20 12 33 32 33 41-3 63-29 60-74-43 2-92-5-92 41" id="aJ"/><path fill="#a9afb8" d="M96-169c-40 0-48 33-48 73s9 75 48 75c24 0 41-14 43-38l32 2c-6 37-31 61-74 61-59 0-76-41-82-99-10-93 101-131 147-64 4 7 5 14 7 22l-32 3c-4-21-16-35-41-35" id="aK"/><path fill="#a9afb8" d="M100-194c62-1 85 37 85 99 1 63-27 99-86 99S16-35 15-95c0-66 28-99 85-99zM99-20c44 1 53-31 53-75 0-43-8-75-51-75s-53 32-53 75 10 74 51 75" id="aL"/><g id="e"><use transform="matrix(0.04248971193415638,0,0,0.04248971193415638,0,0)" xlink:href="#aI"/><use transform="matrix(0.04248971193415638,0,0,0.04248971193415638,10.19753086419753,0)" xlink:href="#aJ"/><use transform="matrix(0.04248971193415638,0,0,0.04248971193415638,18.695473251028805,0)" xlink:href="#aG"/><use transform="matrix(0.04248971193415638,0,0,0.04248971193415638,23.751748971193415,0)" xlink:href="#aJ"/><use transform="matrix(0.04248971193415638,0,0,0.04248971193415638,32.24969135802469,0)" xlink:href="#aK"/><use transform="matrix(0.04248971193415638,0,0,0.04248971193415638,39.897839506172836,0)" xlink:href="#aE"/><use transform="matrix(0.04248971193415638,0,0,0.04248971193415638,48.39578189300411,0)" xlink:href="#aL"/></g><path fill="#a9afb8" d="M68-38c1 34 0 65-14 84H32c9-13 17-26 17-46H33v-38h35" id="aM"/><use transform="matrix(0.04248971193415638,0,0,0.04248971193415638,0,0)" xlink:href="#aM" id="f"/><g id="g"><use transform="matrix(0.04248971193415638,0,0,0.04248971193415638,0,0)" xlink:href="#aA"/><use transform="matrix(0.04248971193415638,0,0,0.04248971193415638,11.897119341563785,0)" xlink:href="#aB"/><use transform="matrix(0.04248971193415638,0,0,0.04248971193415638,20.39506172839506,0)" xlink:href="#aC"/><use transform="matrix(0.04248971193415638,0,0,0.04248971193415638,23.751748971193415,0)" xlink:href="#aD"/><use transform="matrix(0.04248971193415638,0,0,0.04248971193415638,27.10843621399177,0)" xlink:href="#aE"/><use transform="matrix(0.04248971193415638,0,0,0.04248971193415638,35.60637860082304,0)" xlink:href="#aF"/><use transform="matrix(0.04248971193415638,0,0,0.04248971193415638,44.10432098765432,0)" xlink:href="#aG"/><use transform="matrix(0.04248971193415638,0,0,0.04248971193415638,49.160596707818925,0)" xlink:href="#aH"/><use transform="matrix(0.04248971193415638,0,0,0.04248971193415638,61.865020576131684,0)" xlink:href="#aF"/></g><path fill="#a9afb8" d="M30-248c87 1 191-15 191 75 0 78-77 80-158 76V0H30v-248zm33 125c57 0 124 11 124-50 0-59-68-47-124-48v98" id="aN"/><path fill="#a9afb8" d="M59-47c-2 24 18 29 38 22v24C64 9 27 4 27-40v-127H5v-23h24l9-43h21v43h35v23H59v120" id="aO"/><path fill="#a9afb8" d="M141-36C126-15 110 5 73 4 37 3 15-17 15-53c-1-64 63-63 125-63 3-35-9-54-41-54-24 1-41 7-42 31l-33-3c5-37 33-52 76-52 45 0 72 20 72 64v82c-1 20 7 32 28 27v20c-31 9-61-2-59-35zM48-53c0 20 12 33 32 33 41-3 63-29 60-74-43 2-92-5-92 41zm117-205c-3 23-9 48-36 47-26-1-65-44-74 0H39c4-23 8-48 36-47s64 44 74 0h16" id="aP"/><g id="h"><use transform="matrix(0.04248971193415638,0,0,0.04248971193415638,0,0)" xlink:href="#aN"/><use transform="matrix(0.04248971193415638,0,0,0.04248971193415638,10.19753086419753,0)" xlink:href="#aJ"/><use transform="matrix(0.04248971193415638,0,0,0.04248971193415638,18.695473251028805,0)" xlink:href="#aO"/><use transform="matrix(0.04248971193415638,0,0,0.04248971193415638,22.944444444444443,0)" xlink:href="#aG"/><use transform="matrix(0.04248971193415638,0,0,0.04248971193415638,28.000720164609053,0)" xlink:href="#aP"/><use transform="matrix(0.04248971193415638,0,0,0.04248971193415638,36.498662551440326,0)" xlink:href="#aL"/><use transform="matrix(0.04248971193415638,0,0,0.04248971193415638,44.9966049382716,0)" xlink:href="#aM"/></g><path fill="#a9afb8" d="M240 0l2-218c-23 76-54 145-80 218h-23L58-218 59 0H30v-248h44l77 211c21-75 51-140 76-211h43V0h-30" id="aQ"/><path fill="#a9afb8" d="M177-190C167-65 218 103 67 71c-23-6-38-20-44-43l32-5c15 47 100 32 89-28v-30C133-14 115 1 83 1 29 1 15-40 15-95c0-56 16-97 71-98 29-1 48 16 59 35 1-10 0-23 2-32h30zM94-22c36 0 50-32 50-73 0-42-14-75-50-75-39 0-46 34-46 75s6 73 46 73" id="aR"/><g id="i"><use transform="matrix(0.04248971193415638,0,0,0.04248971193415638,0,0)" xlink:href="#aQ"/><use transform="matrix(0.04248971193415638,0,0,0.04248971193415638,12.704423868312757,0)" xlink:href="#aC"/><use transform="matrix(0.04248971193415638,0,0,0.04248971193415638,16.06111111111111,0)" xlink:href="#aR"/><use transform="matrix(0.04248971193415638,0,0,0.04248971193415638,24.559053497942386,0)" xlink:href="#aB"/><use transform="matrix(0.04248971193415638,0,0,0.04248971193415638,33.05699588477366,0)" xlink:href="#aF"/><use transform="matrix(0.04248971193415638,0,0,0.04248971193415638,41.55493827160494,0)" xlink:href="#aD"/></g><path fill="#a9afb8" d="M30 0v-248h187v28H63v79h144v27H63v87h162V0H30" id="aS"/><path fill="#a9afb8" d="M100-194c63 0 86 42 84 106H49c0 40 14 67 53 68 26 1 43-12 49-29l28 8c-11 28-37 45-77 45C44 4 14-33 15-96c1-61 26-98 85-98zm52 81c6-60-76-77-97-28-3 7-6 17-6 28h103zm-74-98c8-23 27-35 38-54h36v5l-58 49H78" id="aT"/><g id="j"><use transform="matrix(0.04248971193415638,0,0,0.04248971193415638,0,0)" xlink:href="#aS"/><use transform="matrix(0.04248971193415638,0,0,0.04248971193415638,10.19753086419753,0)" xlink:href="#aD"/><use transform="matrix(0.04248971193415638,0,0,0.04248971193415638,13.554218106995881,0)" xlink:href="#aF"/><use transform="matrix(0.04248971193415638,0,0,0.04248971193415638,22.05216049382716,0)" xlink:href="#aB"/><use transform="matrix(0.04248971193415638,0,0,0.04248971193415638,30.550102880658436,0)" xlink:href="#aO"/><use transform="matrix(0.04248971193415638,0,0,0.04248971193415638,34.79907407407407,0)" xlink:href="#aT"/><use transform="matrix(0.04248971193415638,0,0,0.04248971193415638,43.29701646090535,0)" xlink:href="#aG"/><use transform="matrix(0.04248971193415638,0,0,0.04248971193415638,48.35329218106995,0)" xlink:href="#aC"/><use transform="matrix(0.04248971193415638,0,0,0.04248971193415638,51.7099794238683,0)" xlink:href="#aL"/></g><path fill="#a9afb8" d="M32 76v-337h29V76H32" id="aU"/><use transform="matrix(0.04248971193415638,0,0,0.04248971193415638,0,0)" xlink:href="#aU" id="k"/><path fill="#a9afb8" d="M30-248c118-7 216 8 213 122C240-48 200 0 122 0H30v-248zM63-27c89 8 146-16 146-99s-60-101-146-95v194" id="aV"/><path fill="#a9afb8" d="M115-194c53 0 69 39 70 98 0 66-23 100-70 100C84 3 66-7 56-30L54 0H23l1-261h32v101c10-23 28-34 59-34zm-8 174c40 0 45-34 45-75 0-40-5-75-45-74-42 0-51 32-51 76 0 43 10 73 51 73" id="aW"/><g id="l"><use transform="matrix(0.04248971193415638,0,0,0.04248971193415638,0,0)" xlink:href="#aV"/><use transform="matrix(0.04248971193415638,0,0,0.04248971193415638,11.004835390946502,0)" xlink:href="#aF"/><use transform="matrix(0.04248971193415638,0,0,0.04248971193415638,19.502777777777776,0)" xlink:href="#aK"/><use transform="matrix(0.04248971193415638,0,0,0.04248971193415638,27.150925925925925,0)" xlink:href="#aF"/><use transform="matrix(0.04248971193415638,0,0,0.04248971193415638,35.6488683127572,0)" xlink:href="#aH"/><use transform="matrix(0.04248971193415638,0,0,0.04248971193415638,48.35329218106995,0)" xlink:href="#aW"/><use transform="matrix(0.04248971193415638,0,0,0.04248971193415638,56.851234567901244,0)" xlink:href="#aF"/><use transform="matrix(0.04248971193415638,0,0,0.04248971193415638,65.34917695473251,0)" xlink:href="#aG"/></g><path fill="#a9afb8" d="M101-251c82-7 93 87 43 132L82-64C71-53 59-42 53-27h129V0H18c2-99 128-94 128-182 0-28-16-43-45-43s-46 15-49 41l-32-3c6-41 34-60 81-64" id="aX"/><path fill="#a9afb8" d="M27 0v-27h64v-190l-56 39v-29l58-41h29v221h61V0H27" id="aY"/><g id="m"><use transform="matrix(0.04248971193415638,0,0,0.04248971193415638,0,0)" xlink:href="#aX"/><use transform="matrix(0.04248971193415638,0,0,0.04248971193415638,8.497942386831275,0)" xlink:href="#aY"/><use transform="matrix(0.04248971193415638,0,0,0.04248971193415638,16.99588477366255,0)" xlink:href="#aM"/></g><path fill="#a9afb8" d="M101-251c68 0 85 55 85 127S166 4 100 4C33 4 14-52 14-124c0-73 17-127 87-127zm-1 229c47 0 54-49 54-102s-4-102-53-102c-51 0-55 48-55 102 0 53 5 102 54 102" id="aZ"/><path fill="#a9afb8" d="M126-127c33 6 58 20 58 59 0 88-139 92-164 29-3-8-5-16-6-25l32-3c6 27 21 44 54 44 32 0 52-15 52-46 0-38-36-46-79-43v-28c39 1 72-4 72-42 0-27-17-43-46-43-28 0-47 15-49 41l-32-3c6-42 35-63 81-64 48-1 79 21 79 65 0 36-21 52-52 59" id="ba"/><g id="n"><use transform="matrix(0.04248971193415638,0,0,0.04248971193415638,0,0)" xlink:href="#aX"/><use transform="matrix(0.04248971193415638,0,0,0.04248971193415638,8.497942386831275,0)" xlink:href="#aZ"/><use transform="matrix(0.04248971193415638,0,0,0.04248971193415638,16.99588477366255,0)" xlink:href="#aX"/><use transform="matrix(0.04248971193415638,0,0,0.04248971193415638,25.493827160493822,0)" xlink:href="#ba"/></g><path d="M15-91v-56l181-69v40L49-119l147 57v40" id="bb"/><path d="M88-194c31-1 46 15 58 34l-1-101h50l1 261h-48c-2-10 0-23-3-31C134-8 116 4 84 4 32 4 16-41 15-95c0-56 19-97 73-99zm17 164c33 0 40-30 41-66 1-37-9-64-41-64s-38 30-39 65c0 43 13 65 39 65" id="bc"/><path d="M185-48c-13 30-37 53-82 52C43 2 14-33 14-96s30-98 90-98c62 0 83 45 84 108H66c0 31 8 55 39 56 18 0 30-7 34-22zm-45-69c5-46-57-63-70-21-2 6-4 13-4 21h74" id="bd"/><path d="M128 0H69L1-190h53L99-40l48-150h52" id="be"/><path d="M25-224v-37h50v37H25zM25 0v-190h50V0H25" id="bf"/><path d="M190-63c-7 42-38 67-86 67-59 0-84-38-90-98-12-110 154-137 174-36l-49 2c-2-19-15-32-35-32-30 0-35 28-38 64-6 74 65 87 74 30" id="bg"/><path d="M15-22v-40l146-57-146-57v-40l181 69v56" id="bh"/><g id="o"><use transform="matrix(0.05,0,0,0.05,0,0)" xlink:href="#bb"/><use transform="matrix(0.05,0,0,0.05,10.5,0)" xlink:href="#bb"/><use transform="matrix(0.05,0,0,0.05,21,0)" xlink:href="#bc"/><use transform="matrix(0.05,0,0,0.05,31.950000000000003,0)" xlink:href="#bd"/><use transform="matrix(0.05,0,0,0.05,41.95,0)" xlink:href="#be"/><use transform="matrix(0.05,0,0,0.05,51.95,0)" xlink:href="#bf"/><use transform="matrix(0.05,0,0,0.05,56.95,0)" xlink:href="#bg"/><use transform="matrix(0.05,0,0,0.05,66.95,0)" xlink:href="#bd"/><use transform="matrix(0.05,0,0,0.05,76.95,0)" xlink:href="#bh"/><use transform="matrix(0.05,0,0,0.05,87.45,0)" xlink:href="#bh"/></g><path d="M67-125c0 53 21 87 73 88 37 1 54-22 65-47l45 17C233-25 199 4 140 4 58 4 20-42 15-125 8-235 124-281 211-232c18 10 29 29 36 50l-46 12c-8-25-30-41-62-41-52 0-71 34-72 86" id="bi"/><path d="M25 0v-261h50V0H25" id="bj"/><path d="M135-194c87-1 58 113 63 194h-50c-7-57 23-157-34-157-59 0-34 97-39 157H25l-1-190h47c2 12-1 28 3 38 12-26 28-41 61-42" id="bk"/><path d="M115-3C79 11 28 4 28-45v-112H4v-33h27l15-45h31v45h36v33H77v99c-1 23 16 31 38 25v30" id="bl"/><g id="p"><use transform="matrix(0.05,0,0,0.05,0,0)" xlink:href="#bi"/><use transform="matrix(0.05,0,0,0.05,12.950000000000001,0)" xlink:href="#bj"/><use transform="matrix(0.05,0,0,0.05,17.950000000000003,0)" xlink:href="#bf"/><use transform="matrix(0.05,0,0,0.05,22.950000000000003,0)" xlink:href="#bd"/><use transform="matrix(0.05,0,0,0.05,32.95,0)" xlink:href="#bk"/><use transform="matrix(0.05,0,0,0.05,43.900000000000006,0)" xlink:href="#bl"/></g><path d="M147 0H94L2-248h55l64 206c17-72 42-137 63-206h54" id="bm"/><path d="M230 0l2-204L168 0h-37L68-204 70 0H24v-248h70l56 185 57-185h69V0h-46" id="bn"/><g id="q"><use transform="matrix(0.05,0,0,0.05,0,0)" xlink:href="#bm"/><use transform="matrix(0.05,0,0,0.05,12,0)" xlink:href="#bn"/></g><path d="M140-251c80 0 125 45 125 126S219 4 139 4C58 4 15-44 15-125s44-126 125-126zm-1 214c52 0 73-35 73-88 0-50-21-86-72-86-52 0-73 35-73 86s22 88 72 88" id="bo"/><path d="M169-182c-1-43-94-46-97-3 18 66 151 10 154 114 3 95-165 93-204 36-6-8-10-19-12-30l50-8c3 46 112 56 116 5-17-69-150-10-154-114-4-87 153-88 188-35 5 8 8 18 10 28" id="bp"/><g id="r"><use transform="matrix(0.05,0,0,0.05,0,0)" xlink:href="#bb"/><use transform="matrix(0.05,0,0,0.05,10.5,0)" xlink:href="#bb"/><use transform="matrix(0.05,0,0,0.05,21,0)" xlink:href="#bo"/><use transform="matrix(0.05,0,0,0.05,35,0)" xlink:href="#bp"/><use transform="matrix(0.05,0,0,0.05,47,0)" xlink:href="#bh"/><use transform="matrix(0.05,0,0,0.05,57.5,0)" xlink:href="#bh"/></g><path d="M195 0l-88-114-31 24V0H24v-248h52v113l112-113h60L142-143 257 0h-62" id="bq"/><path d="M133-34C117-15 103 5 69 4 32 3 11-16 11-54c-1-60 55-63 116-61 1-26-3-47-28-47-18 1-26 9-28 27l-52-2c7-38 36-58 82-57s74 22 75 68l1 82c-1 14 12 18 25 15v27c-30 8-71 5-69-32zm-48 3c29 0 43-24 42-57-32 0-66-3-65 30 0 17 8 27 23 27" id="br"/><g id="s"><use transform="matrix(0.05,0,0,0.05,0,0)" xlink:href="#bq"/><use transform="matrix(0.05,0,0,0.05,12.950000000000001,0)" xlink:href="#br"/><use transform="matrix(0.05,0,0,0.05,22.950000000000003,0)" xlink:href="#bj"/><use transform="matrix(0.05,0,0,0.05,27.950000000000003,0)" xlink:href="#bf"/></g><path d="M24 0v-248h52v208h133V0H24" id="bs"/><path d="M85 4C-2 5 27-109 22-190h50c7 57-23 150 33 157 60-5 35-97 40-157h50l1 190h-47c-2-12 1-28-3-38-12 25-28 42-61 42" id="bt"/><path d="M144 0l-44-69L55 0H2l70-98-66-92h53l41 62 40-62h54l-67 91 71 99h-54" id="bu"/><g id="t"><use transform="matrix(0.05,0,0,0.05,0,0)" xlink:href="#bs"/><use transform="matrix(0.05,0,0,0.05,10.950000000000001,0)" xlink:href="#bf"/><use transform="matrix(0.05,0,0,0.05,15.950000000000001,0)" xlink:href="#bk"/><use transform="matrix(0.05,0,0,0.05,26.900000000000002,0)" xlink:href="#bt"/><use transform="matrix(0.05,0,0,0.05,37.85,0)" xlink:href="#bu"/></g><path d="M110-194c64 0 96 36 96 99 0 64-35 99-97 99-61 0-95-36-95-99 0-62 34-99 96-99zm-1 164c35 0 45-28 45-65 0-40-10-65-43-65-34 0-45 26-45 65 0 36 10 65 43 65" id="bv"/><g id="u"><use transform="matrix(0.05,0,0,0.05,0,0)" xlink:href="#bb"/><use transform="matrix(0.05,0,0,0.05,10.5,0)" xlink:href="#bb"/><use transform="matrix(0.05,0,0,0.05,21,0)" xlink:href="#bd"/><use transform="matrix(0.05,0,0,0.05,31,0)" xlink:href="#bu"/><use transform="matrix(0.05,0,0,0.05,41,0)" xlink:href="#bd"/><use transform="matrix(0.05,0,0,0.05,51,0)" xlink:href="#bg"/><use transform="matrix(0.05,0,0,0.05,61,0)" xlink:href="#bt"/><use transform="matrix(0.05,0,0,0.05,71.95,0)" xlink:href="#bl"/><use transform="matrix(0.05,0,0,0.05,77.9,0)" xlink:href="#bf"/><use transform="matrix(0.05,0,0,0.05,82.9,0)" xlink:href="#bv"/><use transform="matrix(0.05,0,0,0.05,93.85000000000001,0)" xlink:href="#bk"/></g><path d="M135-150c-39-12-60 13-60 57V0H25l-1-190h47c2 13-1 29 3 40 6-28 27-53 61-41v41" id="bw"/><path d="M220-157c-53 9-28 100-34 157h-49v-107c1-27-5-49-29-50C55-147 81-57 75 0H25l-1-190h47c2 12-1 28 3 38 10-53 101-56 108 0 13-22 24-43 59-42 82 1 51 116 57 194h-49v-107c-1-25-5-48-29-50" id="bx"/><g id="v"><use transform="matrix(0.05,0,0,0.05,0,0)" xlink:href="#bd"/><use transform="matrix(0.05,0,0,0.05,10,0)" xlink:href="#bk"/><use transform="matrix(0.05,0,0,0.05,20.950000000000003,0)" xlink:href="#be"/><use transform="matrix(0.05,0,0,0.05,30.950000000000003,0)" xlink:href="#bf"/><use transform="matrix(0.05,0,0,0.05,35.95,0)" xlink:href="#bw"/><use transform="matrix(0.05,0,0,0.05,42.95,0)" xlink:href="#bv"/><use transform="matrix(0.05,0,0,0.05,53.900000000000006,0)" xlink:href="#bk"/><use transform="matrix(0.05,0,0,0.05,64.85000000000001,0)" xlink:href="#bx"/><use transform="matrix(0.05,0,0,0.05,80.85000000000001,0)" xlink:href="#bd"/><use transform="matrix(0.05,0,0,0.05,90.85000000000001,0)" xlink:href="#bk"/><use transform="matrix(0.05,0,0,0.05,101.80000000000001,0)" xlink:href="#bl"/><use transform="matrix(0.05,0,0,0.05,107.75,0)" xlink:href="#bh"/><use transform="matrix(0.05,0,0,0.05,118.25,0)" xlink:href="#bh"/></g><g id="w"><use transform="matrix(0.05,0,0,0.05,0,0)" xlink:href="#bi"/><use transform="matrix(0.05,0,0,0.05,12.950000000000001,0)" xlink:href="#bv"/><use transform="matrix(0.05,0,0,0.05,23.900000000000002,0)" xlink:href="#bx"/><use transform="matrix(0.05,0,0,0.05,39.900000000000006,0)" xlink:href="#bx"/><use transform="matrix(0.05,0,0,0.05,55.900000000000006,0)" xlink:href="#br"/><use transform="matrix(0.05,0,0,0.05,65.9,0)" xlink:href="#bc"/></g><g id="x"><use transform="matrix(0.05,0,0,0.05,0,0)" xlink:href="#bs"/><use transform="matrix(0.05,0,0,0.05,10.950000000000001,0)" xlink:href="#bf"/><use transform="matrix(0.05,0,0,0.05,15.950000000000001,0)" xlink:href="#bk"/><use transform="matrix(0.05,0,0,0.05,26.900000000000002,0)" xlink:href="#bd"/></g><path d="M199 0l-22-63H83L61 0H9l90-248h61L250 0h-51zm-33-102l-36-108c-10 38-24 72-36 108h72" id="by"/><path d="M24-248c93 1 206-16 204 79-1 75-69 88-152 82V0H24v-248zm52 121c47 0 100 7 100-41 0-47-54-39-100-39v80" id="bz"/><path d="M24 0v-248h52V0H24" id="bA"/><g id="y"><use transform="matrix(0.05,0,0,0.05,0,0)" xlink:href="#by"/><use transform="matrix(0.05,0,0,0.05,12.950000000000001,0)" xlink:href="#bz"/><use transform="matrix(0.05,0,0,0.05,24.950000000000003,0)" xlink:href="#bA"/></g><g id="z"><use transform="matrix(0.05,0,0,0.05,0,0)" xlink:href="#bp"/><use transform="matrix(0.05,0,0,0.05,12,0)" xlink:href="#bd"/><use transform="matrix(0.05,0,0,0.05,22,0)" xlink:href="#bw"/><use transform="matrix(0.05,0,0,0.05,29,0)" xlink:href="#be"/><use transform="matrix(0.05,0,0,0.05,39,0)" xlink:href="#bd"/><use transform="matrix(0.05,0,0,0.05,49,0)" xlink:href="#bw"/></g><g id="A"><use transform="matrix(0.05,0,0,0.05,0,0)" xlink:href="#bm"/><use transform="matrix(0.05,0,0,0.05,12,0)" xlink:href="#bn"/></g><path d="M135-194c53 0 70 44 70 98 0 56-19 98-73 100-31 1-45-17-59-34 3 33 2 69 2 105H25l-1-265h48c2 10 0 23 3 31 11-24 29-35 60-35zM114-30c33 0 39-31 40-66 0-38-9-64-40-64-56 0-55 130 0 130" id="bB"/><path d="M195-6C206 82 75 100 31 46c-4-6-6-13-8-21l49-6c3 16 16 24 34 25 40 0 42-37 40-79-11 22-30 35-61 35-53 0-70-43-70-97 0-56 18-96 73-97 30 0 46 14 59 34l2-30h47zm-90-29c32 0 41-27 41-63 0-35-9-62-40-62-32 0-39 29-40 63 0 36 9 62 39 62" id="bC"/><g id="B"><use transform="matrix(0.05,0,0,0.05,0,0)" xlink:href="#bp"/><use transform="matrix(0.05,0,0,0.05,12,0)" xlink:href="#bB"/><use transform="matrix(0.05,0,0,0.05,22.950000000000003,0)" xlink:href="#bw"/><use transform="matrix(0.05,0,0,0.05,29.950000000000003,0)" xlink:href="#bf"/><use transform="matrix(0.05,0,0,0.05,34.95,0)" xlink:href="#bk"/><use transform="matrix(0.05,0,0,0.05,45.900000000000006,0)" xlink:href="#bC"/></g><path d="M182-130c37 4 62 22 62 59C244 23 116-4 24 0v-248c84 5 203-23 205 63 0 31-19 50-47 55zM76-148c40-3 101 13 101-30 0-44-60-28-101-31v61zm0 110c48-3 116 14 116-37 0-48-69-32-116-35v72" id="bD"/><g id="C"><use transform="matrix(0.05,0,0,0.05,0,0)" xlink:href="#bD"/><use transform="matrix(0.05,0,0,0.05,12.950000000000001,0)" xlink:href="#bv"/><use transform="matrix(0.05,0,0,0.05,23.900000000000002,0)" xlink:href="#bv"/><use transform="matrix(0.05,0,0,0.05,34.85,0)" xlink:href="#bl"/></g><path d="M24-248c120-7 223 5 221 122C244-46 201 0 124 0H24v-248zM76-40c74 7 117-18 117-86 0-67-45-88-117-82v168" id="bE"/><g id="D"><use transform="matrix(0.05,0,0,0.05,0,0)" xlink:href="#bE"/><use transform="matrix(0.05,0,0,0.05,12.950000000000001,0)" xlink:href="#bD"/></g><path d="M137-138c1-29-70-34-71-4 15 46 118 7 119 86 1 83-164 76-172 9l43-7c4 19 20 25 44 25 33 8 57-30 24-41C81-84 22-81 20-136c-2-80 154-74 161-7" id="bF"/><path d="M140-251c80 0 125 45 125 126 0 70-33 111-92 124 6 28 34 38 68 31l-1 36C177 83 129 55 120 2 51-6 15-50 15-125c0-81 44-126 125-126zm-1 214c52 0 73-35 73-88 0-50-21-86-72-86-52 0-73 35-73 86s22 88 72 88" id="bG"/><g id="E"><use transform="matrix(0.05,0,0,0.05,0,0)" xlink:href="#bz"/><use transform="matrix(0.05,0,0,0.05,12,0)" xlink:href="#bv"/><use transform="matrix(0.05,0,0,0.05,22.950000000000003,0)" xlink:href="#bF"/><use transform="matrix(0.05,0,0,0.05,32.95,0)" xlink:href="#bl"/><use transform="matrix(0.05,0,0,0.05,38.900000000000006,0)" xlink:href="#bC"/><use transform="matrix(0.05,0,0,0.05,49.85000000000001,0)" xlink:href="#bw"/><use transform="matrix(0.05,0,0,0.05,56.85,0)" xlink:href="#bd"/><use transform="matrix(0.05,0,0,0.05,66.85000000000001,0)" xlink:href="#bp"/><use transform="matrix(0.05,0,0,0.05,78.85000000000001,0)" xlink:href="#bG"/><use transform="matrix(0.05,0,0,0.05,92.85000000000001,0)" xlink:href="#bs"/></g><path fill="#333" d="M18-100v-36l175-74v27L42-118l151 64v27" id="bH"/><path fill="#333" d="M115-194c55 1 70 41 70 98S169 2 115 4C84 4 66-9 55-30l1 105H24l-1-265h31l2 30c10-21 28-34 59-34zm-8 174c40 0 45-34 45-75s-6-73-45-74c-42 0-51 32-51 76 0 43 10 73 51 73" id="bI"/><path fill="#333" d="M114-163C36-179 61-72 57 0H25l-1-190h30c1 12-1 29 2 39 6-27 23-49 58-41v29" id="bJ"/><path fill="#333" d="M100-194c62-1 85 37 85 99 1 63-27 99-86 99S16-35 15-95c0-66 28-99 85-99zM99-20c44 1 53-31 53-75 0-43-8-75-51-75s-53 32-53 75 10 74 51 75" id="bK"/><path fill="#333" d="M59-47c-2 24 18 29 38 22v24C64 9 27 4 27-40v-127H5v-23h24l9-43h21v43h35v23H59v120" id="bL"/><path fill="#333" d="M96-169c-40 0-48 33-48 73s9 75 48 75c24 0 41-14 43-38l32 2c-6 37-31 61-74 61-59 0-76-41-82-99-10-93 101-131 147-64 4 7 5 14 7 22l-32 3c-4-21-16-35-41-35" id="bM"/><path fill="#333" d="M24 0v-261h32V0H24" id="bN"/><path fill="#333" d="M18-27v-27l151-64-151-65v-27l175 74v36" id="bO"/><g id="F"><use transform="matrix(0.05,0,0,0.05,0,0)" xlink:href="#bH"/><use transform="matrix(0.05,0,0,0.05,10.5,0)" xlink:href="#bH"/><use transform="matrix(0.05,0,0,0.05,21,0)" xlink:href="#bI"/><use transform="matrix(0.05,0,0,0.05,31,0)" xlink:href="#bJ"/><use transform="matrix(0.05,0,0,0.05,36.95,0)" xlink:href="#bK"/><use transform="matrix(0.05,0,0,0.05,46.95,0)" xlink:href="#bL"/><use transform="matrix(0.05,0,0,0.05,51.95,0)" xlink:href="#bK"/><use transform="matrix(0.05,0,0,0.05,61.95,0)" xlink:href="#bM"/><use transform="matrix(0.05,0,0,0.05,70.95,0)" xlink:href="#bK"/><use transform="matrix(0.05,0,0,0.05,80.95,0)" xlink:href="#bN"/><use transform="matrix(0.05,0,0,0.05,84.9,0)" xlink:href="#bO"/><use transform="matrix(0.05,0,0,0.05,95.4,0)" xlink:href="#bO"/></g><path fill="#333" d="M33 0v-248h34V0H33" id="bP"/><path fill="#333" d="M117-194c89-4 53 116 60 194h-32v-121c0-31-8-49-39-48C34-167 62-67 57 0H25l-1-190h30c1 10-1 24 2 32 11-22 29-35 61-36" id="bQ"/><path fill="#333" d="M100-194c63 0 86 42 84 106H49c0 40 14 67 53 68 26 1 43-12 49-29l28 8c-11 28-37 45-77 45C44 4 14-33 15-96c1-61 26-98 85-98zm52 81c6-60-76-77-97-28-3 7-6 17-6 28h103" id="bR"/><path fill="#333" d="M141-36C126-15 110 5 73 4 37 3 15-17 15-53c-1-64 63-63 125-63 3-35-9-54-41-54-24 1-41 7-42 31l-33-3c5-37 33-52 76-52 45 0 72 20 72 64v82c-1 20 7 32 28 27v20c-31 9-61-2-59-35zM48-53c0 20 12 33 32 33 41-3 63-29 60-74-43 2-92-5-92 41" id="bS"/><g id="G"><use transform="matrix(0.05,0,0,0.05,0,0)" xlink:href="#bP"/><use transform="matrix(0.05,0,0,0.05,5,0)" xlink:href="#bQ"/><use transform="matrix(0.05,0,0,0.05,15,0)" xlink:href="#bL"/><use transform="matrix(0.05,0,0,0.05,20,0)" xlink:href="#bR"/><use transform="matrix(0.05,0,0,0.05,30,0)" xlink:href="#bJ"/><use transform="matrix(0.05,0,0,0.05,35.95,0)" xlink:href="#bQ"/><use transform="matrix(0.05,0,0,0.05,45.95,0)" xlink:href="#bS"/><use transform="matrix(0.05,0,0,0.05,55.95,0)" xlink:href="#bN"/></g><path fill="#333" d="M190 0L58-211 59 0H30v-248h39L202-35l-2-213h31V0h-41" id="bT"/><path fill="#333" d="M206 0h-36l-40-164L89 0H53L-1-190h32L70-26l43-164h34l41 164 42-164h31" id="bU"/><path fill="#333" d="M143 0L79-87 56-68V0H24v-261h32v163l83-92h37l-77 82L181 0h-38" id="bV"/><path fill="#333" d="M33-154v-36h34v36H33zM33 0v-36h34V0H33" id="bW"/><g id="H"><use transform="matrix(0.05,0,0,0.05,0,0)" xlink:href="#bT"/><use transform="matrix(0.05,0,0,0.05,12.950000000000001,0)" xlink:href="#bR"/><use transform="matrix(0.05,0,0,0.05,22.950000000000003,0)" xlink:href="#bL"/><use transform="matrix(0.05,0,0,0.05,27.950000000000003,0)" xlink:href="#bU"/><use transform="matrix(0.05,0,0,0.05,40.900000000000006,0)" xlink:href="#bK"/><use transform="matrix(0.05,0,0,0.05,50.900000000000006,0)" xlink:href="#bJ"/><use transform="matrix(0.05,0,0,0.05,56.85,0)" xlink:href="#bV"/><use transform="matrix(0.05,0,0,0.05,65.85000000000001,0)" xlink:href="#bW"/></g><path fill="#333" d="M84 4C-5 8 30-112 23-190h32v120c0 31 7 50 39 49 72-2 45-101 50-169h31l1 190h-30c-1-10 1-25-2-33-11 22-28 36-60 37" id="bX"/><g id="I"><use transform="matrix(0.05,0,0,0.05,0,0)" xlink:href="#bK"/><use transform="matrix(0.05,0,0,0.05,10,0)" xlink:href="#bX"/><use transform="matrix(0.05,0,0,0.05,20,0)" xlink:href="#bL"/></g><path fill="#333" d="M233-177c-1 41-23 64-60 70L243 0h-38l-65-103H63V0H30v-248c88 3 205-21 203 71zM63-129c60-2 137 13 137-47 0-61-80-42-137-45v92" id="bY"/><path fill="#333" d="M30 0v-248h187v28H63v79h144v27H63v87h162V0H30" id="bZ"/><path fill="#333" d="M185-189c-5-48-123-54-124 2 14 75 158 14 163 119 3 78-121 87-175 55-17-10-28-26-33-46l33-7c5 56 141 63 141-1 0-78-155-14-162-118-5-82 145-84 179-34 5 7 8 16 11 25" id="ca"/><path fill="#333" d="M127-220V0H93v-220H8v-28h204v28h-85" id="cb"/><g id="J"><use transform="matrix(0.05,0,0,0.05,0,0)" xlink:href="#bY"/><use transform="matrix(0.05,0,0,0.05,12.950000000000001,0)" xlink:href="#bZ"/><use transform="matrix(0.05,0,0,0.05,24.950000000000003,0)" xlink:href="#ca"/><use transform="matrix(0.05,0,0,0.05,36.95,0)" xlink:href="#cb"/></g><path fill="#333" d="M0 4l72-265h28L28 4H0" id="cc"/><g id="K"><use transform="matrix(0.05,0,0,0.05,0,0)" xlink:href="#bU"/><use transform="matrix(0.05,0,0,0.05,12.950000000000001,0)" xlink:href="#cc"/></g><path fill="#333" d="M197 0v-115H63V0H30v-248h33v105h134v-105h34V0h-34" id="cd"/><path fill="#333" d="M30-248c87 1 191-15 191 75 0 78-77 80-158 76V0H30v-248zm33 125c57 0 124 11 124-50 0-59-68-47-124-48v98" id="ce"/><g id="L"><use transform="matrix(0.05,0,0,0.05,0,0)" xlink:href="#cd"/><use transform="matrix(0.05,0,0,0.05,12.950000000000001,0)" xlink:href="#cb"/><use transform="matrix(0.05,0,0,0.05,23.900000000000002,0)" xlink:href="#cb"/><use transform="matrix(0.05,0,0,0.05,34.85,0)" xlink:href="#ce"/><use transform="matrix(0.05,0,0,0.05,46.85,0)" xlink:href="#ca"/></g><path fill="#333" d="M24-231v-30h32v30H24zM24 0v-190h32V0H24" id="cf"/><path fill="#333" d="M101-251c82-7 93 87 43 132L82-64C71-53 59-42 53-27h129V0H18c2-99 128-94 128-182 0-28-16-43-45-43s-46 15-49 41l-32-3c6-41 34-60 81-64" id="cg"/><g id="M"><use transform="matrix(0.05,0,0,0.05,0,0)" xlink:href="#cf"/><use transform="matrix(0.05,0,0,0.05,3.95,0)" xlink:href="#bQ"/><use transform="matrix(0.05,0,0,0.05,13.949999999999998,0)" xlink:href="#cg"/></g><path fill="#333" d="M177-190C167-65 218 103 67 71c-23-6-38-20-44-43l32-5c15 47 100 32 89-28v-30C133-14 115 1 83 1 29 1 15-40 15-95c0-56 16-97 71-98 29-1 48 16 59 35 1-10 0-23 2-32h30zM94-22c36 0 50-32 50-73 0-42-14-75-50-75-39 0-46 34-46 75s6 73 46 73" id="ch"/><g id="N"><use transform="matrix(0.05,0,0,0.05,0,0)" xlink:href="#ca"/><use transform="matrix(0.05,0,0,0.05,12,0)" xlink:href="#bI"/><use transform="matrix(0.05,0,0,0.05,22,0)" xlink:href="#bJ"/><use transform="matrix(0.05,0,0,0.05,27.950000000000003,0)" xlink:href="#cf"/><use transform="matrix(0.05,0,0,0.05,31.899999999999995,0)" xlink:href="#bQ"/><use transform="matrix(0.05,0,0,0.05,41.9,0)" xlink:href="#ch"/></g><path fill="#333" d="M30-248c118-7 216 8 213 122C240-48 200 0 122 0H30v-248zM63-27c89 8 146-16 146-99s-60-101-146-95v194" id="ci"/><g id="O"><use transform="matrix(0.05,0,0,0.05,0,0)" xlink:href="#ci"/><use transform="matrix(0.05,0,0,0.05,12.950000000000001,0)" xlink:href="#bS"/><use transform="matrix(0.05,0,0,0.05,22.950000000000003,0)" xlink:href="#bL"/><use transform="matrix(0.05,0,0,0.05,27.950000000000003,0)" xlink:href="#bS"/></g><path fill="#333" d="M153-248C145-148 188 4 80 4 36 3 13-21 6-62l32-5c4 25 16 42 43 43 27 0 39-20 39-49v-147H72v-28h81" id="cj"/><path fill="#333" d="M205 0l-28-72H64L36 0H1l101-248h38L239 0h-34zm-38-99l-47-123c-12 45-31 82-46 123h93" id="ck"/><g id="P"><use transform="matrix(0.05,0,0,0.05,0,0)" xlink:href="#cj"/><use transform="matrix(0.05,0,0,0.05,9,0)" xlink:href="#ce"/><use transform="matrix(0.05,0,0,0.05,19.65,0)" xlink:href="#ck"/></g><path fill="#333" d="M30 0v-248h33v221h125V0H30" id="cl"/><g id="Q"><use transform="matrix(0.05,0,0,0.05,0,0)" xlink:href="#cb"/><use transform="matrix(0.05,0,0,0.05,10.950000000000001,0)" xlink:href="#cl"/><use transform="matrix(0.05,0,0,0.05,20.950000000000003,0)" xlink:href="#ca"/></g><path d="M135-194c52 0 70 43 70 98 0 56-19 99-73 100-30 1-46-15-58-35L72 0H24l1-261h50v104c11-23 29-37 60-37zM114-30c31 0 40-27 40-66 0-37-7-63-39-63s-41 28-41 65c0 36 8 64 40 64" id="cm"/><g id="R"><use transform="matrix(0.05,0,0,0.05,0,0)" xlink:href="#bb"/><use transform="matrix(0.05,0,0,0.05,10.5,0)" xlink:href="#bb"/><use transform="matrix(0.05,0,0,0.05,21,0)" xlink:href="#bl"/><use transform="matrix(0.05,0,0,0.05,26.950000000000003,0)" xlink:href="#br"/><use transform="matrix(0.05,0,0,0.05,36.95,0)" xlink:href="#cm"/><use transform="matrix(0.05,0,0,0.05,47.900000000000006,0)" xlink:href="#bj"/><use transform="matrix(0.05,0,0,0.05,52.900000000000006,0)" xlink:href="#bd"/><use transform="matrix(0.05,0,0,0.05,62.900000000000006,0)" xlink:href="#bh"/><use transform="matrix(0.05,0,0,0.05,73.4,0)" xlink:href="#bh"/></g><g id="S"><use transform="matrix(0.05,0,0,0.05,0,0)" xlink:href="#bB"/><use transform="matrix(0.05,0,0,0.05,10.950000000000001,0)" xlink:href="#br"/><use transform="matrix(0.05,0,0,0.05,20.950000000000003,0)" xlink:href="#bl"/><use transform="matrix(0.05,0,0,0.05,26.900000000000002,0)" xlink:href="#bf"/><use transform="matrix(0.05,0,0,0.05,31.900000000000002,0)" xlink:href="#bd"/><use transform="matrix(0.05,0,0,0.05,41.900000000000006,0)" xlink:href="#bk"/><use transform="matrix(0.05,0,0,0.05,52.85,0)" xlink:href="#bl"/><use transform="matrix(0.05,0,0,0.05,58.80000000000001,0)" xlink:href="#bF"/></g><path d="M76-208v77h127v40H76V0H24v-248h183v40H76" id="cn"/><path d="M231 0h-52l-39-155L100 0H48L-1-190h46L77-45c9-52 24-97 36-145h53l37 145 32-145h46" id="co"/><g id="T"><use transform="matrix(0.05,0,0,0.05,0,0)" xlink:href="#bo"/><use transform="matrix(0.05,0,0,0.05,14,0)" xlink:href="#bt"/><use transform="matrix(0.05,0,0,0.05,24.950000000000003,0)" xlink:href="#bl"/><use transform="matrix(0.05,0,0,0.05,30.900000000000002,0)" xlink:href="#bd"/><use transform="matrix(0.05,0,0,0.05,40.900000000000006,0)" xlink:href="#bw"/><use transform="matrix(0.05,0,0,0.05,47.900000000000006,0)" xlink:href="#cn"/><use transform="matrix(0.05,0,0,0.05,58.85,0)" xlink:href="#bf"/><use transform="matrix(0.05,0,0,0.05,63.85,0)" xlink:href="#bw"/><use transform="matrix(0.05,0,0,0.05,70.85000000000001,0)" xlink:href="#bd"/><use transform="matrix(0.05,0,0,0.05,80.85000000000001,0)" xlink:href="#co"/><use transform="matrix(0.05,0,0,0.05,94.85000000000001,0)" xlink:href="#br"/><use transform="matrix(0.05,0,0,0.05,104.85000000000001,0)" xlink:href="#bj"/><use transform="matrix(0.05,0,0,0.05,109.85000000000001,0)" xlink:href="#bj"/></g><g id="U"><use transform="matrix(0.05,0,0,0.05,0,0)" xlink:href="#cn"/><use transform="matrix(0.05,0,0,0.05,10.950000000000001,0)" xlink:href="#bf"/><use transform="matrix(0.05,0,0,0.05,15.950000000000001,0)" xlink:href="#bw"/><use transform="matrix(0.05,0,0,0.05,22.950000000000003,0)" xlink:href="#bd"/><use transform="matrix(0.05,0,0,0.05,32.95,0)" xlink:href="#co"/><use transform="matrix(0.05,0,0,0.05,46.95,0)" xlink:href="#br"/><use transform="matrix(0.05,0,0,0.05,56.95,0)" xlink:href="#bj"/><use transform="matrix(0.05,0,0,0.05,61.95,0)" xlink:href="#bj"/></g><g id="V"><use transform="matrix(0.05,0,0,0.05,0,0)" xlink:href="#bA"/><use transform="matrix(0.05,0,0,0.05,5,0)" xlink:href="#bk"/><use transform="matrix(0.05,0,0,0.05,15.950000000000001,0)" xlink:href="#bk"/><use transform="matrix(0.05,0,0,0.05,26.900000000000002,0)" xlink:href="#bd"/><use transform="matrix(0.05,0,0,0.05,36.900000000000006,0)" xlink:href="#bw"/><use transform="matrix(0.05,0,0,0.05,43.900000000000006,0)" xlink:href="#cn"/><use transform="matrix(0.05,0,0,0.05,54.85,0)" xlink:href="#bf"/><use transform="matrix(0.05,0,0,0.05,59.85,0)" xlink:href="#bw"/><use transform="matrix(0.05,0,0,0.05,66.85000000000001,0)" xlink:href="#bd"/><use transform="matrix(0.05,0,0,0.05,76.85000000000001,0)" xlink:href="#co"/><use transform="matrix(0.05,0,0,0.05,90.85000000000001,0)" xlink:href="#br"/><use transform="matrix(0.05,0,0,0.05,100.85000000000001,0)" xlink:href="#bj"/><use transform="matrix(0.05,0,0,0.05,105.85000000000001,0)" xlink:href="#bj"/></g><path fill="#333" d="M27 0v-27h64v-190l-56 39v-29l58-41h29v221h61V0H27" id="cp"/><g id="W"><use transform="matrix(0.05,0,0,0.05,0,0)" xlink:href="#cf"/><use transform="matrix(0.05,0,0,0.05,3.95,0)" xlink:href="#bQ"/><use transform="matrix(0.05,0,0,0.05,13.949999999999998,0)" xlink:href="#cp"/></g><path fill="#333" d="M126-127c33 6 58 20 58 59 0 88-139 92-164 29-3-8-5-16-6-25l32-3c6 27 21 44 54 44 32 0 52-15 52-46 0-38-36-46-79-43v-28c39 1 72-4 72-42 0-27-17-43-46-43-28 0-47 15-49 41l-32-3c6-42 35-63 81-64 48-1 79 21 79 65 0 36-21 52-52 59" id="cq"/><g id="X"><use transform="matrix(0.05,0,0,0.05,0,0)" xlink:href="#cf"/><use transform="matrix(0.05,0,0,0.05,3.95,0)" xlink:href="#bQ"/><use transform="matrix(0.05,0,0,0.05,13.949999999999998,0)" xlink:href="#cq"/></g><path fill="#333" d="M85-194c31 0 48 13 60 33l-1-100h32l1 261h-30c-2-10 0-23-3-31C134-8 116 4 85 4 32 4 16-35 15-94c0-66 23-100 70-100zm9 24c-40 0-46 34-46 75 0 40 6 74 45 74 42 0 51-32 51-76 0-42-9-74-50-73" id="cr"/><g id="Y"><use transform="matrix(0.03765432098765432,0,0,0.03765432098765432,0,0)" xlink:href="#ck"/><use transform="matrix(0.03765432098765432,0,0,0.03765432098765432,9.037037037037036,0)" xlink:href="#cr"/><use transform="matrix(0.03765432098765432,0,0,0.03765432098765432,16.5679012345679,0)" xlink:href="#bS"/><use transform="matrix(0.03765432098765432,0,0,0.03765432098765432,24.098765432098762,0)" xlink:href="#bI"/><use transform="matrix(0.03765432098765432,0,0,0.03765432098765432,31.629629629629626,0)" xlink:href="#bL"/><use transform="matrix(0.03765432098765432,0,0,0.03765432098765432,35.395061728395056,0)" xlink:href="#bR"/><use transform="matrix(0.03765432098765432,0,0,0.03765432098765432,42.925925925925924,0)" xlink:href="#bJ"/></g><use transform="matrix(0.03765432098765432,0,0,0.03765432098765432,0,0)" xlink:href="#cp" id="Z"/><use transform="matrix(0.03765432098765432,0,0,0.03765432098765432,0,0)" xlink:href="#cg" id="aa"/><g id="ab"><use transform="matrix(0.05,0,0,0.05,0,0)" xlink:href="#ck"/><use transform="matrix(0.05,0,0,0.05,12,0)" xlink:href="#cr"/><use transform="matrix(0.05,0,0,0.05,22,0)" xlink:href="#bS"/><use transform="matrix(0.05,0,0,0.05,32,0)" xlink:href="#bI"/><use transform="matrix(0.05,0,0,0.05,42,0)" xlink:href="#bL"/><use transform="matrix(0.05,0,0,0.05,47,0)" xlink:href="#bR"/><use transform="matrix(0.05,0,0,0.05,57,0)" xlink:href="#bJ"/></g><use transform="matrix(0.05,0,0,0.05,0,0)" xlink:href="#cp" id="ac"/><g id="ad"><use transform="matrix(0.03765432098765432,0,0,0.03765432098765432,0,0)" xlink:href="#cg"/><use transform="matrix(0.03765432098765432,0,0,0.03765432098765432,7.530864197530864,0)" xlink:href="#bW"/></g><g id="ae"><use transform="matrix(0.03765432098765432,0,0,0.03765432098765432,0,0)" xlink:href="#bT"/><use transform="matrix(0.03765432098765432,0,0,0.03765432098765432,9.752469135802468,0)" xlink:href="#ck"/><use transform="matrix(0.03765432098765432,0,0,0.03765432098765432,17.772839506172836,0)" xlink:href="#cb"/></g><g id="af"><use transform="matrix(0.03765432098765432,0,0,0.03765432098765432,0,0)" xlink:href="#cq"/><use transform="matrix(0.03765432098765432,0,0,0.03765432098765432,7.530864197530864,0)" xlink:href="#bW"/></g><path d="M33 0v-248h34V0H33" id="cs"/><path d="M117-194c89-4 53 116 60 194h-32v-121c0-31-8-49-39-48C34-167 62-67 57 0H25l-1-190h30c1 10-1 24 2 32 11-22 29-35 61-36" id="ct"/><path d="M59-47c-2 24 18 29 38 22v24C64 9 27 4 27-40v-127H5v-23h24l9-43h21v43h35v23H59v120" id="cu"/><path d="M100-194c63 0 86 42 84 106H49c0 40 14 67 53 68 26 1 43-12 49-29l28 8c-11 28-37 45-77 45C44 4 14-33 15-96c1-61 26-98 85-98zm52 81c6-60-76-77-97-28-3 7-6 17-6 28h103" id="cv"/><path d="M114-163C36-179 61-72 57 0H25l-1-190h30c1 12-1 29 2 39 6-27 23-49 58-41v29" id="cw"/><g id="ag"><use transform="matrix(0.05,0,0,0.05,0,0)" xlink:href="#cs"/><use transform="matrix(0.05,0,0,0.05,5,0)" xlink:href="#ct"/><use transform="matrix(0.05,0,0,0.05,15,0)" xlink:href="#cu"/><use transform="matrix(0.05,0,0,0.05,20,0)" xlink:href="#cv"/><use transform="matrix(0.05,0,0,0.05,30,0)" xlink:href="#cw"/><use transform="matrix(0.05,0,0,0.05,35.95,0)" xlink:href="#ct"/><use transform="matrix(0.05,0,0,0.05,45.95,0)" xlink:href="#cv"/><use transform="matrix(0.05,0,0,0.05,55.95,0)" xlink:href="#cu"/></g></defs></g></svg>